<svg width="85" height="60" viewBox="0 0 85 60" fill="none" xmlns="http://www.w3.org/2000/svg">
<g id="icon" clip-path="url(#clip0_5385_973)">
<ellipse id="Ellipse 1" opacity="0.8" cx="14.5768" cy="19.3939" rx="14.5768" ry="19.3939" transform="matrix(0.995425 0.0955444 -0.111071 0.993813 52.8662 0)" fill="#FDC040"/>
<ellipse id="Ellipse 2" cx="14.4799" cy="19.5426" rx="14.4799" ry="19.5426" transform="matrix(0.953415 -0.301661 0.3457 0.938345 23.7395 12.736)" fill="#FDC040"/>
<path id="Vector 1" d="M29.1349 33H81.0068C81.4208 33.1667 82.3729 33.8 82.8697 35C83.4907 36.5 85.2466 58.5 55.5722 54C32.2237 54 26.7754 53.3333 26.9824 53C31.2931 52 31.8326 48 32.3721 45C32.9117 42 29.1349 33 29.1349 33Z" fill="#81B13D"/>
<g id="Group">
<g id="Group_2">
<path id="Vector" d="M68.1078 12.4323C67.4267 12.4323 66.8749 12.9439 66.8749 13.5749V13.7574C66.8749 14.3886 67.4267 14.9 68.1078 14.9C68.7889 14.9 69.3407 14.3886 69.3407 13.7574V13.5749C69.3407 12.9437 68.7889 12.4323 68.1078 12.4323Z" fill="#253D4E"/>
</g>
</g>
<g id="Group_3">
<g id="Group_4">
<path id="Vector_2" d="M71.3101 17.5298C70.629 17.5298 70.0771 18.0412 70.0771 18.6723V18.8548C70.0771 19.4859 70.629 19.9974 71.3101 19.9974C71.9911 19.9974 72.543 19.486 72.543 18.8548V18.6723C72.543 18.0412 71.9911 17.5298 71.3101 17.5298Z" fill="#253D4E"/>
</g>
</g>
<g id="Group_5">
<g id="Group_6">
<path id="Vector_3" d="M44.3141 16.4568L44.2228 16.2949C43.9077 15.7353 43.1625 15.5185 42.5594 15.8107C41.9557 16.1028 41.7218 16.7929 42.037 17.3523L42.1282 17.5142C42.348 17.9048 42.7775 18.1285 43.222 18.1285C43.4144 18.1285 43.6093 18.0867 43.7916 17.9984C44.3953 17.7063 44.6292 17.0162 44.3141 16.4568Z" fill="#253D4E"/>
</g>
</g>
<g id="Group_7">
<g id="Group_8">
<path id="Vector_4" d="M49.6986 19.6016L49.6074 19.4397C49.2923 18.8801 48.5472 18.6633 47.9439 18.9555C47.3403 19.2476 47.1063 19.9377 47.4215 20.4971L47.5127 20.6591C47.7325 21.0497 48.1619 21.2733 48.6066 21.2733C48.7989 21.2733 48.9939 21.2316 49.1762 21.1432C49.7798 20.8512 50.0138 20.161 49.6986 19.6016Z" fill="#253D4E"/>
</g>
</g>
<g id="Group_9">
<g id="Group_10">
<path id="Vector_5" d="M42.027 42.3339L38.3598 38.9352C37.8781 38.489 37.0974 38.4889 36.6163 38.9351C36.1346 39.3813 36.1346 40.1048 36.6161 40.5508L40.2833 43.9495C40.5242 44.1727 40.8395 44.2842 41.1551 44.2842C41.4706 44.2842 41.7862 44.1727 42.0269 43.9497C42.5085 43.5034 42.5085 42.78 42.027 42.3339Z" fill="#253D4E"/>
</g>
</g>
<g id="Group_11">
<g id="Group_12">
<path id="Vector_6" d="M52.9234 40.2046C52.5287 39.6906 51.7591 39.5702 51.204 39.9364L38.4054 48.3806C37.8507 48.7465 37.7212 49.46 38.116 49.974C38.3566 50.2872 38.736 50.454 39.1215 50.454C39.3687 50.454 39.6186 50.3852 39.8354 50.2421L52.634 41.7979C53.1887 41.432 53.3182 40.7186 52.9234 40.2046Z" fill="#253D4E"/>
</g>
</g>
<g id="Group_13">
<g id="Group_14">
<path id="Vector_7" d="M57.4481 41.928C57.0536 41.414 56.2837 41.2937 55.7288 41.6599L50.8159 44.9012C50.2611 45.2674 50.1318 45.9807 50.5266 46.4947C50.7671 46.8079 51.1465 46.9748 51.532 46.9748C51.7793 46.9748 52.029 46.9059 52.246 46.7627L57.1588 43.5214C57.7136 43.1555 57.843 42.4421 57.4481 41.928Z" fill="#253D4E"/>
</g>
</g>
<g id="Group_15">
<g id="Group_16">
<path id="Vector_8" d="M83.9346 36.7438C83.5361 36.2319 82.7658 36.1164 82.2133 36.4852L81.8026 36.7596C81.8043 36.6616 81.8067 36.5638 81.8067 36.4656C81.8067 35.3756 81.3491 34.35 80.5156 33.5755C79.6823 32.8052 78.5755 32.3811 77.3994 32.3811H77.0345C78.3876 29.9583 79.0746 27.0409 79.0746 23.673C79.0746 17.0681 76.4029 9.84853 72.2683 5.28048C71.8306 4.79694 71.053 4.73356 70.5314 5.13941C70.0098 5.54495 69.9415 6.26569 70.3791 6.74908C74.1636 10.93 76.6089 17.5732 76.6089 23.673C76.6089 27.1884 75.7935 30.1143 74.1853 32.3811H71.7442L72.8289 31.6655C73.3837 31.2996 73.5131 30.5861 73.1182 30.0721C72.7235 29.5581 71.954 29.4378 71.3989 29.804L67.4929 32.3811H60.1592C60.8983 28.9117 60.1284 25.0358 57.8948 21.0709C56.296 18.2336 54.0253 15.4882 51.4132 13.1622C54.1037 6.85588 58.556 2.82164 62.8943 2.82164C64.2045 2.82164 65.5249 3.17492 66.8184 3.87205C67.4071 4.18893 68.1618 4.00383 68.5041 3.45844C68.8462 2.91289 68.6465 2.21348 68.0578 1.8963C66.3828 0.99396 64.6455 0.536469 62.8943 0.536469C57.6458 0.536469 52.599 4.71589 49.4609 11.5516C48.3921 10.7366 47.2844 9.99555 46.156 9.34976C40.8448 6.30987 35.8154 5.65388 31.9948 7.50227C28.4708 9.20899 26.2135 12.9934 25.6385 18.1583C25.5684 18.786 26.061 19.3474 26.7382 19.412C27.4172 19.4778 28.0215 19.0203 28.091 18.3928C28.5784 14.0158 30.3703 10.8674 33.1362 9.5277C39.8702 6.26965 50.9916 13.7574 55.7089 22.1286C57.8071 25.8531 58.4526 29.2973 57.6358 32.3812H43.8123C43.8089 32.3812 43.8056 32.3812 43.8021 32.3812H37.4843L35.4151 30.4637C34.9334 30.0176 34.1529 30.0176 33.6714 30.4637C33.1899 30.91 33.1899 31.6334 33.6714 32.0796L33.9967 32.3811H30.6119C29.2386 29.4885 28.3358 26.1669 28.0558 22.9447C28.0013 22.3158 27.4075 21.8455 26.7281 21.8975C26.0493 21.9481 25.5435 22.4989 25.598 23.128C25.8254 25.7465 26.4086 28.352 27.3088 30.811C23.7948 28.036 19.2049 26.5447 14.4792 26.7826C14.0386 26.8048 13.6444 27.0435 13.4456 27.4084C11.5915 30.8107 11.0702 34.651 11.8392 38.2878C11.8464 38.3981 11.8699 38.504 11.9084 38.6034C12.1501 39.6411 12.4986 40.6601 12.951 41.6462C7.67372 42.4047 2.98744 45.2873 0.178498 49.5812C-0.0501689 49.9307 -0.0597036 50.3669 0.153182 50.725C2.13984 54.0663 5.27131 56.6334 8.95021 58.0961C9.04835 58.1494 9.15076 58.1898 9.25614 58.2157C11.2878 58.9833 13.4787 59.4171 15.7316 59.4602C15.8551 59.4626 15.9772 59.4637 16.1004 59.4637C16.9774 59.4637 17.8462 59.4023 18.7022 59.287C18.7827 59.2825 18.8628 59.2729 18.9405 59.2542C22.5644 58.7199 25.9334 57.1778 28.5932 54.8607C28.6536 54.8691 28.7147 54.8749 28.7775 54.8749H34.3099C34.991 54.8749 35.5428 54.3635 35.5428 53.7323C35.5428 53.1012 34.991 52.5897 34.3099 52.5897H30.7699C31.0934 52.1833 31.4 51.7627 31.6854 51.3263C31.6941 51.3129 31.7012 51.2989 31.7092 51.2854C31.7166 51.273 31.7255 51.2618 31.7324 51.249C34.6042 45.9766 34.2792 39.6531 30.9049 34.6662H36.4626L39.8193 37.777C40.0601 38 40.3757 38.1115 40.6912 38.1115C41.0067 38.1115 41.3223 38 41.5631 37.777C42.0446 37.3306 42.0446 36.6073 41.5631 36.161L39.9501 34.6662H43.2966L47.8739 38.9081C48.1148 39.1312 48.4304 39.2427 48.7458 39.2427C49.0613 39.2427 49.3769 39.1312 49.6178 38.9081C50.0993 38.4618 50.0993 37.7384 49.6178 37.2922L46.7843 34.6664H58.5619C58.5632 34.6664 58.5646 34.6667 58.566 34.6667C58.5674 34.6667 58.5687 34.6664 58.5702 34.6664H64.0297L61.338 36.4423C60.7832 36.8082 60.6538 37.5216 61.0487 38.0356C61.2892 38.3489 61.6686 38.5157 62.0541 38.5157C62.3013 38.5157 62.551 38.4468 62.768 38.3036L68.281 34.6662H74.8277C74.8284 34.6662 74.8292 34.6664 74.8298 34.6664C74.8308 34.6664 74.8317 34.6662 74.8326 34.6662H77.4003C77.9189 34.6662 78.4073 34.8535 78.7729 35.1912C79.1397 35.532 79.3417 35.9846 79.3417 36.4654C79.3417 37.1533 79.2947 37.831 79.2041 38.4965L70.1511 44.5458C69.5989 44.9149 69.474 45.629 69.8722 46.141C70.1133 46.4507 70.4906 46.6154 70.8733 46.6154C71.1232 46.6154 71.3754 46.5452 71.5935 46.3995L78.3227 41.9031C76.9783 45.3701 74.3868 48.2903 71.0517 50.1973L57.302 37.4552C56.8204 37.0091 56.0399 37.0091 55.5584 37.4552C55.0769 37.9016 55.0769 38.6249 55.5584 39.0711L68.7555 51.3012C66.9684 52.0087 65.0284 52.4461 62.9955 52.5591L57.6205 47.5781C57.1391 47.132 56.3584 47.1318 55.8769 47.5782C55.3954 48.0244 55.3954 48.7478 55.8771 49.194L59.5412 52.5894H47.471L45.4929 50.7563C45.0112 50.3102 44.2307 50.3102 43.7492 50.7563C43.2677 51.2026 43.2677 51.926 43.7492 52.3722L43.9836 52.5894H39.4466C38.7655 52.5894 38.2137 53.1009 38.2137 53.732C38.2137 54.3632 38.7655 54.8746 39.4466 54.8746H46.4483L49.2292 57.4517C49.47 57.6747 49.7856 57.7862 50.1011 57.7862C50.4166 57.7862 50.7322 57.6747 50.973 57.4517C51.4545 57.0053 51.4545 56.282 50.973 55.8357L49.9359 54.8746H61.9402C65.0485 54.8746 67.9919 54.209 70.6144 53.0247L71.65 53.9845C71.8909 54.2075 72.2065 54.319 72.522 54.319C72.8374 54.319 73.1531 54.2075 73.3939 53.9845C73.8754 53.5381 73.8754 52.8148 73.3939 52.3685L72.8356 51.8512C77.2809 49.1391 80.4867 44.8196 81.4811 39.7919L83.6558 38.3388C84.2078 37.9698 84.3328 37.2558 83.9346 36.7438ZM28.66 35.6511C28.7982 35.8472 28.9291 36.0466 29.0563 36.2476L25.9354 41.9865L22.3719 36.9333L24.8658 31.9277C26.3388 32.939 27.6307 34.1917 28.66 35.6511ZM24.5852 44.249L17.7882 44.5662C17.33 44.0764 16.9037 43.5563 16.5158 43.006C15.705 41.8563 15.0864 40.6199 14.6603 39.3374L21.0535 39.2407L24.5852 44.249ZM22.7583 30.706L20.7802 34.6761L16.8487 29.1009C18.9277 29.272 20.9349 29.825 22.7583 30.706ZM14.7838 30.3497L19.4589 36.9793L14.1129 37.0602C13.7746 34.8233 13.9945 32.5215 14.7838 30.3497ZM14.1464 43.8075C14.2456 43.9579 14.347 44.1076 14.4515 44.256C14.9993 45.0328 15.612 45.7581 16.2787 46.4301C16.3274 46.4888 16.3821 46.5427 16.4418 46.5916C17.5493 47.6786 18.802 48.6186 20.1618 49.3922L13.675 49.2686L10.6166 44.5283C11.7491 44.1658 12.9322 43.9219 14.1464 43.8075ZM8.33769 45.4489L10.7661 49.213L3.5776 49.0761C4.90226 47.5767 6.52298 46.348 8.33769 45.4489ZM9.1289 55.6595C6.94497 54.6563 5.01815 53.1895 3.52878 51.3606L12.0726 51.5235L9.1289 55.6595ZM17.8896 57.0819C17.1947 57.1564 16.4908 57.1886 15.7818 57.1756C14.3001 57.1471 12.8494 56.9229 11.4667 56.5254L14.9871 51.5789L21.4416 51.7019L17.8896 57.0819ZM21.2515 56.3682L24.2964 51.7564L28.0391 51.8277C28.116 51.8343 28.1933 51.839 28.2704 51.8446C26.4151 53.9319 23.9748 55.491 21.2515 56.3682ZM28.1831 49.545C25.3223 49.2852 22.6027 48.3022 20.3186 46.7362L26.1471 46.4641L28.3215 49.5476L28.1831 49.545ZM30.3926 48.3075L27.4943 44.1974L30.3711 38.9072C31.4845 41.9357 31.5029 45.2504 30.3926 48.3075Z" fill="#253D4E"/>
</g>
</g>
<g id="Group_17">
<g id="Group_18">
<path id="Vector_9" d="M71.8349 38.7026C71.4364 38.1907 70.6659 38.0753 70.1137 38.4442L65.769 41.3475C65.2168 41.7165 65.0919 42.4305 65.4902 42.9425C65.7312 43.2522 66.1085 43.4169 66.4912 43.4169C66.7412 43.4169 66.9932 43.3467 67.2114 43.2009L71.5561 40.2977C72.1082 39.9287 72.2332 39.2146 71.8349 38.7026Z" fill="#253D4E"/>
</g>
</g>
</g>
<defs>
<clipPath id="clip0_5385_973">
<rect width="84.1676" height="60" fill="white"/>
</clipPath>
</defs>
</svg>
