<?xml version="1.0" encoding="utf-8"?>
<svg width="27.108849px" height="29.999939px" viewBox="0 0 27.108849 29.999939" version="1.1" xmlns:xlink="http://www.w3.org/1999/xlink" xmlns="http://www.w3.org/2000/svg">
  <g id="Group">
    <path d="M18.4295 20.25C20.9151 20.25 22.9295 22.2644 22.9295 24.75L22.9295 24.75C22.9295 27.2356 20.9151 29.25 18.4295 29.25L16.1795 29.25C13.6939 29.25 11.6795 27.2356 11.6795 24.75L11.6795 24.75C11.6795 22.2644 13.6939 20.25 16.1795 20.25L18.4295 20.25Z" id="Rectangle-3" fill="#FDC040" stroke="none" />
    <path d="M0.429474 1.875L1.17947 3.75L2.30447 3.375L4.55447 3.1875L8.11697 3L11.867 3.1875L18.242 3.75L18.8045 3.1875L19.1795 2.25C19.242 2 19.367 1.4625 19.367 1.3125C19.367 1.1625 18.867 1.125 18.617 1.125L17.492 1.5L16.367 1.5C16.1795 1.3125 15.767 0.9375 15.617 0.9375C15.467 0.9375 15.1795 0.6875 15.0545 0.5625L14.117 0.5625L13.5545 1.125L12.8045 1.5L12.0545 1.5L10.1795 0.375L9.24197 0.5625L8.67947 1.125L7.74197 1.5L6.80447 1.3125C6.61697 1.25 6.20447 1.125 6.05447 1.125C5.90447 1.125 5.74197 0.75 5.67947 0.5625L5.11697 0.5625L4.36697 0.75C4.24197 0.875 3.95447 1.125 3.80447 1.125C3.61697 1.125 3.24197 1.3125 3.24197 1.5C3.24197 1.63073 2.96853 1.57916 2.7394 1.53595C2.63989 1.51719 2.54874 1.5 2.49197 1.5C2.30447 1.5 2.11697 1.5 1.92947 1.3125C1.77947 1.1625 1.49197 1.125 1.36697 1.125L0.616974 1.125L0.429474 1.875L0.429474 1.875Z" id="Vector-6" fill="#FDC040" fill-rule="evenodd" stroke="none" />
    <path d="M9.85617 19.2625C11.8444 19.2625 13.7184 18.6814 15.1332 17.6262C16.5865 16.5423 17.3868 15.089 17.3868 13.5341C17.3868 11.9792 16.5865 10.526 15.1332 9.44202C13.7184 8.38685 11.8444 7.80576 9.85617 7.80576C7.86798 7.80576 5.994 8.38685 4.57923 9.44202C3.12596 10.526 2.32555 11.9792 2.32555 13.5341C2.32555 15.089 3.1259 16.5423 4.57923 17.6262C5.994 18.6814 7.86798 19.2625 9.85617 19.2625L9.85617 19.2625ZM3.20448 13.5341C3.20448 10.8601 6.18842 8.68469 9.85617 8.68469C13.524 8.68469 16.5079 10.8601 16.5079 13.5341C16.5079 16.2081 13.524 18.3836 9.85617 18.3836C6.18842 18.3836 3.20448 16.2081 3.20448 13.5341L3.20448 13.5341Z" id="Vector" fill="#3BB77E" fill-rule="evenodd" stroke="none" />
    <path d="M26.3751 25.7648C26.741 25.4808 26.9402 25.1303 26.9402 24.7471C26.9402 24.3639 26.7411 24.0134 26.3751 23.7294C26.6954 23.5073 26.9128 23.2503 27.0245 22.961C27.1218 22.7087 27.1838 22.3024 26.9267 21.7991C26.7262 21.4069 26.4088 21.1524 26.0085 21.063C25.3673 20.92 24.5182 21.2087 23.48 21.9213C22.9896 20.5857 21.7405 19.6296 20.2436 19.5618C19.9296 19.5476 19.6147 19.5364 19.2995 19.5267C19.6024 14.2956 19.5063 8.99602 19.0129 3.76285C19.1753 3.50122 19.4861 2.92195 19.6812 2.0585C19.7987 1.53876 19.5775 1.02752 19.1178 0.75605C18.6652 0.488799 18.1195 0.540948 17.7277 0.889002C17.531 1.06373 17.3451 1.17202 17.0267 1.17202C16.6085 1.17202 16.4218 0.988906 16.1391 0.711752C15.8157 0.394578 15.4133 0 14.6362 0C13.8591 0 13.4567 0.394578 13.1334 0.711635C12.8507 0.988789 12.664 1.1719 12.2459 1.1719C11.8278 1.1719 11.6411 0.988789 11.3584 0.711635C11.035 0.394578 10.6326 1.04085e-16 9.85552 1.04085e-16C9.07843 1.04085e-16 8.67606 0.394578 8.35279 0.711635C8.07013 0.988789 7.88339 1.1719 7.46531 1.1719C7.04724 1.1719 6.86056 0.988789 6.57784 0.711635C6.25457 0.394578 5.8522 1.04085e-16 5.07511 1.04085e-16C4.29808 1.04085e-16 3.89577 0.394578 3.5725 0.711635C3.28984 0.988789 3.10316 1.1719 2.6852 1.1719C2.36691 1.1719 2.18105 1.06361 1.98441 0.888943C1.59276 0.540948 1.04724 0.48874 0.594478 0.755874C0.134801 1.02723 -0.0863364 1.53841 0.0310878 2.05815C0.226209 2.92195 0.537172 3.50134 0.699597 3.76291C0.623599 4.56864 0.555395 5.39038 0.497562 6.2103C0.480452 6.45241 0.662858 6.66253 0.904972 6.67958C1.1482 6.69646 1.35721 6.51423 1.37432 6.27212C1.42817 5.50886 1.49063 4.74343 1.56053 3.9916C7.06693 3.3286 12.6457 3.3286 18.1524 3.9916C18.6307 9.14303 18.72 14.3577 18.4205 19.5055C17.0313 19.481 15.637 19.4991 14.2559 19.5617C12.759 19.6295 11.5099 20.5856 11.0195 21.9212C9.98132 21.2086 9.13216 20.9198 8.49102 21.0629C8.09076 21.1523 7.77329 21.4068 7.57284 21.799C7.31566 22.3023 7.37771 22.7086 7.47498 22.9609C7.55719 23.174 7.69723 23.3693 7.893 23.5462C5.79015 23.4868 3.66473 23.3299 1.56053 23.0763C1.09617 18.0756 0.996966 13.0116 1.2658 8.01918C1.27887 7.77683 1.09294 7.56976 0.850596 7.55675C0.606782 7.54339 0.401232 7.7296 0.388106 7.97195C0.113413 13.0729 0.220291 18.2473 0.704402 23.3546C0.543266 23.6125 0.228084 24.1947 0.0312636 25.0663C-0.086395 25.5862 0.134742 26.0976 0.594595 26.3692C1.04718 26.6365 1.59293 26.5841 1.98441 26.2362C2.18134 26.0615 2.36732 25.9532 2.68532 25.9532C3.10351 25.9532 3.29031 26.1363 3.57303 26.4135C3.89642 26.7306 4.29885 27.1251 5.07593 27.1251C5.85313 27.1251 6.25556 26.7305 6.57895 26.4135C6.86161 26.1363 7.04847 25.9532 7.4666 25.9532C7.60835 25.9532 7.72366 25.9748 7.82438 26.0131C7.6643 26.1726 7.54705 26.346 7.47481 26.5333C7.37754 26.7855 7.31549 27.1918 7.57266 27.6952C7.77311 28.0874 8.09058 28.3419 8.49084 28.4312C8.59737 28.455 8.70958 28.4669 8.82753 28.4669C9.41928 28.4669 10.1536 28.1666 11.0192 27.5726C11.5094 28.9084 12.7587 29.8646 14.2558 29.9324C15.2491 29.9774 16.2493 29.9999 17.2497 29.9999C18.2499 29.9999 19.2503 29.9774 20.2435 29.9324C21.7406 29.8646 22.9897 28.9083 23.48 27.5725C24.3455 28.1666 25.0799 28.4668 25.6716 28.4668C25.7895 28.4668 25.9018 28.4549 26.0083 28.4312C26.4086 28.3418 26.726 28.0873 26.9265 27.6951C27.1837 27.1918 27.1216 26.7855 27.0243 26.5332C26.9128 26.2438 26.6954 25.9869 26.3751 25.7648L26.3751 25.7648L26.3751 25.7648ZM1.35029 3.13231C1.21511 2.88176 1.02163 2.45425 0.88839 1.86449C0.840049 1.65044 0.993274 1.5411 1.04132 1.51274C1.09939 1.47847 1.2508 1.4129 1.40074 1.54609C1.6653 1.78105 2.05038 2.05082 2.6852 2.05082C3.46223 2.05082 3.86454 1.65624 4.18787 1.33919C4.47047 1.06203 4.65721 0.878923 5.07517 0.878923C5.49319 0.878923 5.67987 1.06203 5.96259 1.33919C6.2858 1.65624 6.68823 2.05082 7.46531 2.05082C8.2424 2.05082 8.64483 1.65624 8.9681 1.33919C9.25076 1.06203 9.4375 0.878923 9.85552 0.878923C10.2736 0.878923 10.4603 1.06203 10.743 1.33919C11.0664 1.65624 11.4688 2.05082 12.2459 2.05082C13.023 2.05082 13.4254 1.65624 13.7487 1.33919C14.0313 1.06203 14.2181 0.878923 14.6362 0.878923C15.0543 0.878923 15.2411 1.06203 15.5238 1.33919C15.8472 1.65624 16.2496 2.05082 17.0268 2.05082C17.6616 2.05082 18.0467 1.78111 18.3114 1.54609C18.4612 1.41296 18.6129 1.47841 18.671 1.5128C18.7191 1.54122 18.8724 1.65056 18.8239 1.86467C18.6907 2.4546 18.4971 2.88217 18.3623 3.13225C12.7162 2.44388 6.99573 2.44388 1.35029 3.13231L1.35029 3.13231L1.35029 3.13231ZM19.7177 29.0737C19.126 29.096 18.5325 29.1109 17.9382 29.1172C18.2009 27.1894 18.6885 25.2432 19.3912 23.3245C19.4746 23.0965 19.3576 22.8442 19.1296 22.7607C18.9016 22.6772 18.6494 22.7944 18.5658 23.0222C17.8268 25.0405 17.3178 27.0898 17.0506 29.1199C16.4599 29.1181 15.8695 29.1082 15.2806 29.0905C15.8762 24.759 17.4649 21.4289 18.0136 20.3776C18.5666 20.3841 19.1188 20.3981 19.6695 20.4185C19.5424 20.678 19.3928 20.9964 19.2306 21.367C19.1333 21.5893 19.2345 21.8485 19.4569 21.9458C19.5142 21.9709 19.574 21.9828 19.6329 21.9828C19.8022 21.9828 19.9635 21.8844 20.0357 21.7195C20.2672 21.1907 20.4712 20.7736 20.6167 20.4896C21.1372 20.5918 21.6029 20.8387 21.9711 21.1873C21.273 22.7502 20.1805 25.6143 19.7177 29.0737L19.7177 29.0737L19.7177 29.0737ZM5.96376 25.7858C5.68104 26.063 5.49418 26.2461 5.07605 26.2461C4.65792 26.2461 4.47112 26.063 4.18845 25.7859C3.86501 25.4688 3.46258 25.0742 2.68544 25.0742C2.0512 25.0742 1.666 25.3438 1.40092 25.579C1.25103 25.7121 1.09962 25.6466 1.04162 25.6123C0.99345 25.5839 0.840166 25.4745 0.888683 25.2601C1.03189 24.6258 1.24512 24.1788 1.38024 23.9385C3.44975 24.1902 5.54018 24.3517 7.61086 24.418C7.57717 24.5244 7.55942 24.6343 7.55942 24.7471C7.55942 24.8612 7.57747 24.9723 7.61192 25.0796C7.56487 25.0764 7.51682 25.0743 7.46684 25.0743C6.68958 25.0742 6.28715 25.4688 5.96376 25.7858L5.96376 25.7858L5.96376 25.7858ZM8.68251 27.5734C8.58541 27.5517 8.46043 27.5005 8.35555 27.2953C8.23689 27.0629 8.26414 26.9296 8.29508 26.8496C8.38608 26.6137 8.71796 26.3771 9.22961 26.1832C9.40199 26.1179 9.51532 25.9519 9.51338 25.7676C9.51145 25.5832 9.39467 25.4197 9.22093 25.3581C8.68321 25.1672 8.43834 24.9075 8.43834 24.747C8.43834 24.5865 8.68327 24.3269 9.22093 24.136C9.39467 24.0744 9.51145 23.9108 9.51338 23.7265C9.51526 23.5421 9.40199 23.3762 9.22961 23.3109C8.71796 23.117 8.38608 22.8804 8.29508 22.6445C8.2642 22.5645 8.23689 22.4312 8.35555 22.1989C8.46043 21.9936 8.58541 21.9424 8.68251 21.9207C8.88952 21.8745 9.50073 21.8805 10.8115 22.8524C10.8076 22.8964 10.8037 22.9405 10.8014 22.985C10.7397 24.1542 10.7397 25.3398 10.8014 26.5089C10.8037 26.5534 10.8076 26.5975 10.8115 26.6416C9.50084 27.6135 8.88982 27.6196 8.68251 27.5734L8.68251 27.5734L8.68251 27.5734ZM11.679 23.0314C11.7535 21.6181 12.8785 20.5039 14.2957 20.4398C14.3103 20.4391 14.3249 20.4387 14.3394 20.438C13.7364 21.6771 12.6105 24.2825 11.9788 27.5759C11.806 27.2404 11.7001 26.8636 11.679 26.4628C11.619 25.3244 11.619 24.1699 11.679 23.0314L11.679 23.0314L11.679 23.0314ZM12.7133 28.4666C13.365 24.4611 14.8329 21.3812 15.3406 20.4019C15.9029 20.3855 16.4665 20.3762 17.0304 20.3743C16.3368 21.7843 14.9418 25.0065 14.3981 29.0585C14.364 29.057 14.3298 29.056 14.2957 29.0545C13.6969 29.0273 13.1506 28.8122 12.7133 28.4666L12.7133 28.4666L12.7133 28.4666ZM22.8205 26.4627C22.7534 27.7362 21.8331 28.7665 20.6148 29.0049C21.0316 26.0555 21.9126 23.5674 22.5687 22.0169C22.7129 22.3271 22.8014 22.6693 22.8205 23.0314C22.8805 24.1699 22.8805 25.3243 22.8205 26.4627L22.8205 26.4627L22.8205 26.4627ZM26.144 27.2952C26.0391 27.5005 25.9142 27.5517 25.8171 27.5734C25.6099 27.6195 24.9988 27.6135 23.6881 26.6418C23.692 26.5977 23.6959 26.5536 23.6982 26.509C23.7599 25.3399 23.7599 24.1543 23.6982 22.9851C23.6959 22.9406 23.692 22.8965 23.6881 22.8525C24.9987 21.8807 25.6098 21.8745 25.8171 21.9208C25.9142 21.9425 26.0391 21.9937 26.144 22.1989C26.2627 22.4312 26.2354 22.5645 26.2044 22.6446C26.1134 22.8804 25.7815 23.1171 25.2699 23.3109C25.0976 23.3763 24.9842 23.5422 24.9861 23.7265C24.9881 23.9109 25.1048 24.0744 25.2786 24.1361C25.8164 24.327 26.0612 24.5866 26.0612 24.7471C26.0612 24.9076 25.8163 25.1672 25.2786 25.3581C25.1048 25.4198 24.9881 25.5833 24.9861 25.7676C24.9842 25.952 25.0975 26.1179 25.2699 26.1832C25.7815 26.3771 26.1134 26.6137 26.2045 26.8496C26.2353 26.9296 26.2627 27.0629 26.144 27.2952L26.144 27.2952L26.144 27.2952Z" id="Vector" fill="#3BB77E" stroke="none" />
    <path d="M6.91588 12.0837C8.86709 11.8245 10.8455 11.8245 12.7966 12.0837C12.8162 12.0862 12.8357 12.0875 12.855 12.0875C13.072 12.0875 13.2607 11.9269 13.2901 11.7059C13.3221 11.4653 13.1529 11.2444 12.9123 11.2124C10.8846 10.9431 8.82813 10.9431 6.80016 11.2124C6.55957 11.2444 6.3904 11.4653 6.42239 11.7059C6.45439 11.9465 6.67529 12.1155 6.91588 12.0837L6.91588 12.0837Z" id="Vector" fill="#3BB77E" fill-rule="evenodd" stroke="none" />
    <path d="M13.2901 15.4768C13.2581 15.2362 13.037 15.0672 12.7966 15.099C10.8455 15.3582 8.86709 15.3582 6.91588 15.099C6.67541 15.0671 6.45433 15.2362 6.42239 15.4768C6.3904 15.7174 6.55957 15.9384 6.80016 15.9703C7.81408 16.1049 8.8351 16.1723 9.85617 16.1723C10.8773 16.1723 11.8984 16.1049 12.9123 15.9703C13.153 15.9384 13.3221 15.7174 13.2901 15.4768L13.2901 15.4768Z" id="Vector" fill="#3BB77E" fill-rule="evenodd" stroke="none" />
    <path d="M14.4805 13.6519C14.4805 13.3757 14.2838 13.1519 14.041 13.1519L5.67138 13.1519C5.42862 13.1519 5.23192 13.3757 5.23192 13.6519C5.23192 13.928 5.42862 14.1519 5.67138 14.1519L14.041 14.1519C14.2837 14.1519 14.4805 13.928 14.4805 13.6519L14.4805 13.6519Z" id="Vector" fill="#3BB77E" fill-rule="evenodd" stroke="none" />
  </g>
</svg>