<svg width="12" height="12" viewBox="0 0 12 12" fill="none" xmlns="http://www.w3.org/2000/svg">
<g id="001-star 5" clip-path="url(#clip0_5780_796)">
<path id="Vector" d="M11.4486 4.58597C11.3735 4.35354 11.1673 4.18846 10.9234 4.16648L7.61043 3.86566L6.30038 0.799381C6.20379 0.574662 5.9838 0.429199 5.73938 0.429199C5.49495 0.429199 5.27496 0.574662 5.17837 0.799906L3.86833 3.86566L0.554823 4.16648C0.311364 4.18899 0.105737 4.35354 0.030159 4.58597C-0.0454186 4.81839 0.024379 5.07332 0.20855 5.23403L2.71277 7.43024L1.97433 10.6831C1.9203 10.9222 2.01313 11.1695 2.21158 11.3129C2.31824 11.39 2.44304 11.4292 2.56888 11.4292C2.67739 11.4292 2.78502 11.3999 2.88162 11.3421L5.73938 9.63417L8.59609 11.3421C8.80513 11.4679 9.06864 11.4564 9.26665 11.3129C9.46519 11.169 9.55793 10.9217 9.50389 10.6831L8.76546 7.43024L11.2697 5.23446C11.4538 5.07332 11.5242 4.81883 11.4486 4.58597Z" fill="#CDCDCD"/>
</g>
<defs>
<clipPath id="clip0_5780_796">
<rect width="12" height="12" fill="white"/>
</clipPath>
</defs>
</svg>
