<?xml version="1.0" encoding="utf-8"?>
<svg width="30.000114px" height="28.990479px" viewBox="0 0 30.000114 28.990479" version="1.1" xmlns:xlink="http://www.w3.org/1999/xlink" xmlns="http://www.w3.org/2000/svg">
  <g id="Group-18">
    <path d="M9.57862 12.455L9.01518 15.6479L10.7055 14.8966L12.208 14.1453C12.4585 14.2706 12.9969 14.5585 13.1471 14.7088C13.3349 14.8966 14.6496 16.587 14.8375 16.7748C14.9877 16.925 15.4009 19.2164 15.5887 20.3433L15.5887 23.5361L15.9644 25.4143L17.2791 25.4143C17.2165 25.7899 17.0913 26.5788 17.0913 26.729C17.0913 26.7859 17.0741 26.86 17.0553 26.9408C17.012 27.1271 16.9603 27.3494 17.0913 27.4803C17.2791 27.6681 17.6547 27.4803 18.0303 27.6681C18.2808 27.7933 18.8651 27.7516 19.4494 27.7099C19.7416 27.689 20.0337 27.6681 20.2841 27.6681C21.0354 27.6681 22.7257 27.6681 23.1014 27.4803C23.477 27.2925 24.4161 27.1046 24.6039 26.9168C24.7917 26.729 25.3552 25.4143 25.3552 25.2265C25.3552 25.0762 25.1047 23.2857 24.9795 22.4092C24.6665 20.4059 24.0405 16.3616 24.0405 16.2113C24.0405 16.0235 23.1014 11.8916 23.1014 11.7037C23.1014 11.5535 22.851 11.6411 22.7257 11.7037C22.2875 11.8916 21.3735 12.2672 21.2232 12.2672L19.1572 12.2672C19.007 12.2672 17.9677 11.8916 17.4669 11.7037L15.401 11.5159C14.5245 11.5785 12.7339 11.7037 12.5837 11.7037C12.4334 11.7037 10.5177 12.2046 9.57862 12.455L9.57862 12.455ZM15.2132 19.9676C11.0186 20.0303 2.62948 20.1179 2.62948 19.9676L2.44167 19.9676L2.62948 21.8458C2.75467 21.9084 3.04262 22.0712 3.19287 22.2214C3.38069 22.4092 3.56851 22.5971 3.56851 22.7849L3.56851 23.3483C3.56851 23.5361 3.19287 23.7239 3.19287 23.9118C3.19287 24.0996 2.62948 24.2874 2.44167 24.4752C2.29142 24.6255 2.37906 25.4143 2.44167 25.7899L15.401 25.4143L15.2132 19.9676L15.2132 19.9676Z" id="Vector-13" fill="#FDC040" fill-rule="evenodd" stroke="none" />
    <path d="M2.49971 23.4911C2.22362 23.4911 1.99977 23.715 1.99977 23.9911L1.99977 24.9909L0.499943 24.9909C0.223851 24.9909 0 25.2148 0 25.4909C0.00219701 27.4228 1.56769 28.9883 3.4996 28.9905L14.4983 28.9905C15.4128 28.9907 16.2906 28.6316 16.9426 27.9906L22.4235 27.9906C23.4556 27.9921 24.4359 27.538 25.1023 26.7498C25.769 25.9615 26.0539 24.9194 25.8811 23.9017L25.2971 20.4915L26.3415 20.4915C27.4112 20.4978 28.4316 20.0423 29.1412 19.2416C29.8408 18.4573 30.1364 17.3925 29.9411 16.3596L28.6027 9.36042C28.2451 7.66579 26.7355 6.46304 25.0037 6.49307L22.9898 6.49307L23.0318 4.54847L23.5239 2.12858C23.5537 1.98211 23.5163 1.82954 23.4219 1.71335C23.3276 1.59715 23.1861 1.52953 23.0364 1.5288L14.9983 1.49364C14.1859 1.45727 13.3959 1.21658 12.7009 0.793774C11.7369 0.135647 10.5574 -0.127507 9.40493 0.0580188L7.90168 0.357789C7.73666 0.390744 7.59947 0.504256 7.536 0.66C7.47278 0.815744 7.49206 0.992726 7.58702 1.13138L9.96492 4.58802L9.99885 6.95371L8.49146 15.616L2.23265 19.5687C2.21483 19.5826 2.19823 19.5978 2.18286 19.6141C2.16503 19.6273 2.14844 19.6417 2.13281 19.6571C2.10376 19.6898 2.07911 19.7262 2.05982 19.7652C2.05274 19.7791 2.04273 19.7906 2.03688 19.8057C2.01368 19.8617 2.00099 19.9215 1.99977 19.9822L1.99977 21.9913C1.99977 22.2676 2.22362 22.4912 2.49971 22.4912C2.7758 22.4912 2.99966 22.7151 2.99966 22.9912C2.99966 23.2675 2.7758 23.4911 2.49971 23.4911L2.49971 23.4911ZM8.84103 1.19387L9.5885 1.04375C10.4949 0.902648 11.4211 1.11771 12.1727 1.64377C13.0266 2.16373 13.9994 2.45618 14.9983 2.49353L22.4249 2.52624L22.1244 3.99336L10.7683 3.99336L8.84103 1.19387L8.84103 1.19387ZM10.9707 4.99324L22.0219 4.99324L21.9789 6.98252C21.9784 7.01449 21.9811 7.04623 21.9865 7.07772L22.6973 11.2247L21.1646 11.5386C19.7582 11.8252 18.3028 11.76 16.9275 11.3492C15.0176 10.7729 12.9758 10.8041 11.0842 11.4381L10.1844 11.7381L10.9948 7.07821C10.999 7.04769 11.0004 7.01694 10.9987 6.98618L10.9707 4.99324L10.9707 4.99324ZM25.0037 7.49296C26.2546 7.46488 27.3496 8.32733 27.6157 9.54985L28.9542 16.549C29.0914 17.2787 28.8822 18.0306 28.3879 18.5842C27.8681 19.1672 27.1224 19.4979 26.3415 19.4916L25.126 19.4916L24.9547 18.4917L26.3415 18.4917C26.7943 18.4968 27.2266 18.3032 27.5249 17.9625C27.8259 17.6236 27.9526 17.1642 27.8674 16.7189L26.5289 9.71975C26.38 8.9984 25.7402 8.48381 25.0037 8.49284L23.2434 8.49284L23.0718 7.49296L25.0037 7.49296L25.0037 7.49296ZM24.7838 17.4918L23.4143 9.49273L25.0037 9.49273C25.2605 9.48369 25.488 9.65726 25.5471 9.90723L26.8849 16.9064C26.9129 17.0487 26.8714 17.1957 26.7735 17.3024C26.6647 17.4266 26.5065 17.4962 26.3415 17.4918L24.7838 17.4918L24.7838 17.4918ZM9.9864 12.859L11.3991 12.3879C13.0954 11.8191 14.9265 11.7915 16.6392 12.3091C18.1725 12.767 19.7953 12.8395 21.3635 12.52L22.8633 12.2126L24.897 24.0706C25.0213 24.7983 24.8175 25.5436 24.3405 26.1068C23.8632 26.6702 23.1616 26.9936 22.4235 26.9907L17.6554 26.9907C17.8803 26.5228 17.9972 26.0104 17.9979 25.4909C17.9979 25.2148 17.7741 24.9909 17.498 24.9909L15.9982 24.9909L15.9982 19.9915C15.9926 17.3302 14.5618 14.8757 12.2486 13.5594C12.0877 13.4664 11.8888 13.4703 11.7316 13.5694L9.63195 14.8957L9.9864 12.859L9.9864 12.859ZM12.0062 14.5813C13.7157 15.6578 14.8174 17.4776 14.9783 19.4916L4.2295 19.4916L12.0062 14.5813L12.0062 14.5813ZM2.99966 24.4056C3.59944 24.1939 4.00027 23.6271 4.00027 22.9912C4.00027 22.3553 3.59944 21.7887 2.99966 21.577L2.99966 20.4915L14.9983 20.4915L14.9983 24.9909L2.99966 24.9909L2.99966 24.4056L2.99966 24.4056ZM14.4983 27.9906L3.4996 27.9906C2.31223 27.9894 1.28891 27.154 1.04993 25.9908L16.948 25.9908C16.709 27.154 15.6857 27.9894 14.4983 27.9906L14.4983 27.9906Z" id="Vector" fill="#3BB77E" fill-rule="evenodd" stroke="none" />
    <path d="M10.9988 22.9903L11.9988 22.9903L11.9988 23.9903L10.9988 23.9903L10.9988 22.9903L10.9988 22.9903Z" id="Vector" fill="#3BB77E" fill-rule="evenodd" stroke="none" />
    <path d="M6.49933 21.4905L7.49933 21.4905L7.49933 22.4905L6.49933 22.4905L6.49933 21.4905L6.49933 21.4905Z" id="Vector" fill="#3BB77E" fill-rule="evenodd" stroke="none" />
  </g>
</svg>