<?xml version="1.0" encoding="utf-8"?>
<svg width="28.635796px" height="30.938171px" viewBox="0 0 28.635796 30.938171" version="1.1" xmlns:xlink="http://www.w3.org/1999/xlink" xmlns="http://www.w3.org/2000/svg">
  <g id="Group-15">
    <path d="M20.7757 8.44959C20.5792 8.64609 19.4002 12.9691 19.4002 13.1656C19.5312 13.2966 19.9897 13.6372 20.7757 13.9516C21.2353 14.0665 21.2918 13.9799 21.3773 13.8488C21.4381 13.7557 21.5134 13.6402 21.7583 13.5586C22.3478 13.3621 22.1513 13.3621 22.7408 13.3621C23.3303 13.3621 23.1338 13.3621 23.7233 13.7551C24.0876 13.998 24.1517 13.9407 24.2403 13.8614C24.295 13.8125 24.3592 13.7551 24.5093 13.7551C24.8237 13.7551 25.0333 13.3621 25.0988 13.1656L25.8848 11.5936L27.4568 8.05658L28.6358 3.53704L27.0638 3.34054C25.7538 3.27503 23.0945 3.14403 22.9373 3.14403C22.7801 3.14403 22.4788 4.19204 22.3478 4.71605C21.8893 5.89506 20.9329 8.29238 20.7757 8.44959L20.7757 8.44959ZM11.1471 12.3796C10.9899 12.5368 10.9506 13.3621 10.9506 13.7551C10.9506 13.8206 11.1078 13.9123 11.7367 13.7551C12.5227 13.5586 12.1297 13.5586 12.5227 13.1656C12.7436 12.9447 12.7782 12.9722 12.9059 13.0735C13.0053 13.1524 13.1611 13.2761 13.5052 13.3621C14.2912 13.5586 13.8982 13.7551 14.2912 13.9516C14.5532 14.0826 14.6405 14.039 14.7278 13.9953C14.7715 13.9735 14.8152 13.9516 14.8807 13.9516C15.0772 13.9516 15.4702 13.5586 15.8632 13.3621C16.2562 13.1656 16.2562 13.1656 16.4527 12.9691C16.6099 12.8119 16.6492 12.6416 16.6492 12.5761C16.6492 12.4451 16.6099 12.1045 16.4527 11.7901C16.2562 11.3971 16.0597 11.2006 15.8632 11.0041C15.6667 10.8076 15.2737 10.8076 14.8807 10.6111C14.6187 10.4801 14.3567 10.5238 14.0947 10.5674C13.9637 10.5893 13.8327 10.6111 13.7017 10.6111C13.3087 10.6111 12.5227 10.8076 12.3262 10.8076C12.1297 10.8076 11.7367 11.3971 11.5401 11.5936C11.3436 11.7901 11.3436 12.1831 11.1471 12.3796L11.1471 12.3796ZM8.78908 26.7242C6.43105 27.3531 5.57955 25.1522 5.44854 23.9732L5.05554 23.9732C4.92453 23.9077 4.62321 23.7767 4.46601 23.7767C4.26951 23.7767 3.0905 23.5802 2.89402 23.5802C2.69754 23.5802 1.71498 23.7767 1.71498 23.9732C1.71498 24.1697 0.929 25.1522 0.732498 25.3487C0.579264 25.502 0.665016 26.4917 0.710209 27.0133C0.722971 27.1606 0.732498 27.2706 0.732498 27.3138C0.732498 27.5103 1.1255 28.4928 1.1255 28.6893C1.1255 28.8858 1.322 29.2788 1.51851 29.6718C1.715 30.0648 1.91151 30.2613 2.30451 30.6543C2.49074 30.8405 2.50048 30.8944 2.5219 30.8995C2.52814 30.901 2.53538 30.8984 2.54827 30.8937C2.58448 30.8804 2.6653 30.8508 2.89402 30.8508C3.48352 30.8508 3.48352 30.8508 3.87653 30.6543C4.26953 30.4578 4.85904 30.4578 5.05554 30.4578C5.25204 30.4578 5.44854 30.8508 5.84155 30.8508C5.99167 30.8508 6.08444 30.8795 6.16368 30.904C6.29189 30.9436 6.38467 30.9723 6.62756 30.8508C7.02056 30.6543 7.21706 30.6543 7.61007 30.4578C8.00307 30.2613 8.39608 29.0823 8.39608 28.8858C8.39608 28.7286 8.65808 27.3793 8.78908 26.7242L8.78908 26.7242Z" id="Vector-10" fill="#FDC040" fill-rule="evenodd" stroke="none" />
    <path d="M22.9899 4.65455L23.9408 4.34498L24.9174 7.34522L23.9664 7.65455L22.9899 4.65455L22.9899 4.65455Z" id="Vector" fill="#3BB77E" fill-rule="evenodd" stroke="none" />
    <path d="M21.5243 8.15504L22.4752 7.84547L23.452 10.8452L22.5011 11.155L21.5243 8.15504L21.5243 8.15504Z" id="Vector" fill="#3BB77E" fill-rule="evenodd" stroke="none" />
    <path d="M4.66396 9.61354C4.55849 10.3775 4.78139 11.1504 5.27797 11.7405L5.9999 12.646L5.9999 21L6.9999 21L6.9999 13.4346L7.72231 13.916C7.89052 14.0281 8.10927 14.0281 8.27748 13.916L9.49989 13.1001L10.7223 13.915C10.8905 14.0271 11.1093 14.0271 11.2775 13.915L12.4999 13.1001L13.7223 13.915C13.8905 14.0271 14.1092 14.0271 14.2774 13.915L15.4999 13.1001L16.7223 13.915C16.8905 14.0271 17.1092 14.0271 17.2774 13.915L18.4999 13.1001L19.4999 13.7666L19.4999 29L8.49989 29L8.49989 30L22.4999 30C23.88 29.9983 24.9981 28.8801 24.9999 27.5L24.9999 12.5C24.9986 12.3901 24.9608 12.2837 24.8924 12.1975L27.7818 4.50514C28.1708 3.47169 28.0284 2.31349 27.401 1.40504C26.8048 0.523696 25.8092 -0.00315993 24.7455 1.39008e-05C23.3895 0.0127092 22.1817 0.859877 21.7084 2.13063L20.9244 4.21754L19.9999 3.29298L19.9999 1.50001C19.9999 1.22389 19.776 1.00001 19.4999 1.00001L13.9999 1.00001C13.7237 1.00001 13.4999 1.22389 13.4999 1.50001L13.4999 2.35792C12.9347 1.84572 12.0822 1.81666 11.4833 2.28956L11.4833 1.50001C11.4833 0.681655 10.82 0.0180802 10.0014 0.0180802C9.183 0.0180802 8.51943 0.681655 8.51943 1.50001L8.51943 2.29005C8.24574 2.06325 7.90126 1.93922 7.54579 1.93995C7.1332 1.93898 6.73769 2.10548 6.44985 2.40162C5.85683 3.01271 5.85317 3.98341 6.4413 4.59913L6.90688 5.0796C6.73744 5.15724 6.58364 5.26515 6.45302 5.39796L6.44985 5.39991L6.44496 5.40504C6.32851 5.52467 6.23207 5.66237 6.15981 5.813L5.58998 4.76051L4.71035 5.23658L6.00331 7.62306C5.94545 7.65602 5.88735 7.688 5.83242 7.7256C5.81191 7.73951 5.79384 7.75563 5.77382 7.76954L3.83901 5.98658L3.16103 6.72194L5.0829 8.49391C4.8622 8.83155 4.71913 9.21388 4.66396 9.61354L4.66396 9.61354ZM7.16347 3.10304C7.26381 2.99952 7.40175 2.94093 7.54579 2.94093C7.69008 2.94118 7.82802 2.99952 7.92836 3.10304L8.66249 3.85304C8.80507 3.99855 9.02162 4.04274 9.20985 3.96534C9.39809 3.88771 9.52065 3.70363 9.51943 3.50001L9.51943 1.50001C9.51137 1.32252 9.60146 1.15504 9.7538 1.06398C9.90639 0.97267 10.0966 0.97267 10.2489 1.06398C10.4015 1.15504 10.4916 1.32252 10.4833 1.50001L10.4833 3.50001C10.4835 3.70289 10.6063 3.88551 10.7943 3.96217C10.9821 4.03907 11.1977 3.99464 11.34 3.85011L12.0763 3.10011C12.2873 2.89235 12.6256 2.89235 12.8363 3.10011C13.0536 3.32252 13.0536 3.6775 12.8363 3.89991L11.3634 5.39991L11.3783 5.41505L11.1464 5.64698C11.1061 5.68849 11.0736 5.73683 11.0499 5.78956C11.0429 5.80494 11.039 5.82057 11.0333 5.83644C11.0185 5.87916 11.0094 5.9236 11.0065 5.96852C11.0065 5.9795 11.0004 5.98854 11.0004 5.99952L11.0004 10.4099C10.8866 10.5188 10.7809 10.6358 10.6845 10.76L9.73988 8.75001C9.39125 8.05641 8.76112 7.54615 8.0099 7.35011C7.8351 7.30494 7.6559 7.2776 7.47548 7.26905L7.34731 7.11891C7.24745 7.00441 7.17201 6.91505 7.15981 6.9026C7.03066 6.76735 6.97475 6.57789 7.0099 6.39405C7.02846 6.28956 7.07656 6.19288 7.14833 6.115L7.15737 6.10646L7.16982 6.09303C7.35097 5.91554 7.63149 5.88942 7.84242 6.03004C8.05458 6.17189 8.33925 6.13112 8.50331 5.9358C8.66737 5.74025 8.65785 5.45289 8.48134 5.26857L7.15981 3.90455C6.94521 3.67994 6.94692 3.3257 7.16347 3.10304L7.16347 3.10304ZM22.6444 2.48195C22.9703 1.6006 23.8058 1.01149 24.7455 1.00001C25.4803 0.998549 26.1676 1.36305 26.579 1.97194C27.0204 2.61134 27.12 3.42653 26.8458 4.15358L23.7499 12.3999L22.9999 12.8999L21.7774 12.085C21.6092 11.9729 21.3905 11.9729 21.2223 12.085L19.9999 12.8999L18.9855 12.2236L22.6444 2.48195L22.6444 2.48195ZM14.4999 2.00001L18.9999 2.00001L18.9999 3.00001L14.4999 3.00001L14.4999 2.00001L14.4999 2.00001ZM14.2069 4.00001L18.2928 4.00001L16.7928 5.50001L12.7069 5.50001L14.2069 4.00001L14.2069 4.00001ZM20.5384 5.24562L17.8849 12.3091L17.4999 12.5659L17.4999 6.20704L19.4999 4.20704L20.5384 5.24562L20.5384 5.24562ZM16.4999 12.5659L16.4903 12.5596C16.4303 11.5086 15.8641 10.552 14.9715 9.99366C14.0792 9.43531 12.9713 9.34449 11.9999 9.75001L11.9999 6.50001L16.4999 6.50001L16.4999 12.5659L16.4999 12.5659ZM5.65493 9.75001C5.72011 9.26539 5.98842 8.83131 6.39296 8.55641C6.79408 8.28517 7.29238 8.19923 7.76137 8.32057C8.23012 8.44215 8.62416 8.75929 8.84291 9.19142L10.1173 11.906C10.0858 12.023 10.0609 12.1416 10.0429 12.2615L9.77943 12.0855C9.61147 11.9734 9.39247 11.9734 9.2245 12.0855L7.99989 12.8999L6.89101 12.1599L6.78383 12.0256L8.07289 11.0291L7.46083 10.238L6.16103 11.2434L6.04994 11.105C5.73183 10.73 5.58827 10.2373 5.65493 9.75001L5.65493 9.75001ZM15.2223 12.084L13.9999 12.8999L12.7775 12.085C12.6093 11.9729 12.3905 11.9729 12.2223 12.085L11.0114 12.8926C11.0084 12.8425 10.9999 12.7991 10.9999 12.751C10.9967 11.6521 11.7899 10.7124 12.8737 10.5313C13.9576 10.3499 15.0133 10.9802 15.3678 12.0205C15.3163 12.0339 15.2672 12.0552 15.2223 12.084L15.2223 12.084ZM23.9999 27.5C23.9999 28.3284 23.3282 29 22.4999 29L20.4999 29L20.4999 13.7676L21.4999 13.1001L22.7223 13.915C22.8905 14.0271 23.1092 14.0271 23.2774 13.915L23.9999 13.4346L23.9999 27.5L23.9999 27.5Z" id="Vector" fill="#3BB77E" fill-rule="evenodd" stroke="none" />
    <path d="M1.06763 28.7529C1.44751 29.5193 2.23022 30.0029 3.08545 30C3.43579 29.9995 3.781 29.918 4.09448 29.7619L4.5 29.5591L4.906 29.7619C5.21924 29.918 5.56445 29.9995 5.91455 30C6.77002 30.0029 7.55249 29.5193 7.93261 28.7529L8.10693 28.4031C8.69238 27.2283 8.99804 25.9341 9 24.6216C8.99829 23.1743 7.82568 22.0017 6.37842 22C5.89062 22.0014 5.41284 22.1399 5 22.3999L5 22C5 20.8955 4.10449 20 3 20L3 21C3.55224 21 4 21.4477 4 22L4 22.3999C3.58716 22.1399 3.10937 22.0014 2.62158 22C1.17432 22.0017 0.00170899 23.1743 0 24.6216C0.00170899 25.9343 0.307373 27.229 0.893066 28.404L1.06763 28.7529L1.06763 28.7529ZM2.62158 23C3.05176 22.9988 3.4646 23.1699 3.76806 23.4751L4.14648 23.8535C4.34179 24.0486 4.6582 24.0486 4.85351 23.8535L5.23193 23.4751C5.6958 23.0112 6.39306 22.8725 6.99902 23.1235C7.60498 23.3745 8 23.9658 8 24.6216C7.99878 25.7793 7.72924 26.9209 7.2124 27.957L7.03808 28.3071C6.82592 28.7331 6.39038 29.0017 5.91455 29C5.71972 28.9997 5.52759 28.9543 5.35302 28.8674L4.72363 28.5525C4.58276 28.4822 4.41723 28.4822 4.27661 28.5525L3.64746 28.8674C3.4729 28.9543 3.28052 28.9997 3.08545 29C2.60937 29.0014 2.17358 28.7322 1.96191 28.3054L1.7876 27.9555C1.271 26.9199 1.00146 25.7788 1 24.6216C1.00122 23.7265 1.72656 23.0012 2.62158 23L2.62158 23Z" id="Vector" fill="#3BB77E" fill-rule="evenodd" stroke="none" />
  </g>
</svg>