<?xml version="1.0" encoding="utf-8"?>
<svg width="29.998627px" height="29.999878px" viewBox="0 0 29.998627 29.999878" version="1.1" xmlns:xlink="http://www.w3.org/1999/xlink" xmlns="http://www.w3.org/2000/svg">
  <g id="Group">
    <path d="M12.1868 11.25L8.99927 11.0625L8.81177 11.8125L8.81177 13.5L8.99927 16.125C9.18677 16.1875 9.63677 16.35 9.93677 16.5C10.226 16.6446 10.9614 16.5662 11.3687 16.5227C11.4895 16.5098 11.5814 16.5 11.6243 16.5C11.8118 16.5 14.2493 16.3125 14.4368 16.125C14.6243 15.9375 14.8118 15.5625 14.9993 15.375C15.1868 15.1875 15.1868 14.625 15.1868 14.4375L15.1868 12.9375C15.1868 12.5625 14.9993 12 14.9993 11.8125C14.9993 11.6625 14.6243 11.375 14.4368 11.25L12.1868 11.25L12.1868 11.25ZM19.6868 18.9375L18.9368 20.625L19.4993 21.75L19.4993 22.3125L19.6868 23.0625C19.9368 23.1875 20.4743 23.4375 20.6243 23.4375C20.7743 23.4375 21.1868 23.5625 21.3743 23.625C21.3743 23.8125 21.3368 24.225 21.1868 24.375C21.0368 24.525 20.7493 24.5625 20.6243 24.5625C20.4993 24.8125 20.2493 25.35 20.2493 25.5C20.2493 25.6875 20.0618 26.25 20.0618 26.4375C20.0618 26.5875 19.6868 27.25 19.4993 27.5625L19.6868 29.25C20.2493 29.3125 21.4118 29.4375 21.5618 29.4375L24.5618 29.4375C25.5618 29.125 27.5618 28.4625 27.5618 28.3125C27.5618 28.1625 28.3118 27.875 28.6868 27.75L29.4368 26.25L28.6868 24.5625L26.6243 20.4375L26.2493 20.25C25.9993 20.3125 25.4618 20.4 25.3118 20.25C25.1243 20.0625 24.5618 20.0625 24.5618 19.875C24.5618 19.6875 24.1868 19.6875 24.1868 19.5C24.1868 19.3125 23.9993 19.125 23.9993 18.9375L23.9993 18.1875C23.9993 18 24.1868 17.8125 24.1868 17.625C24.1868 17.475 24.5618 17.3125 24.7493 17.25L24.7493 16.6875C24.6243 16.4375 24.3743 15.9 24.3743 15.75C24.3743 15.5625 23.8118 15.1875 23.6243 15.1875C23.4368 15.1875 22.8743 15 22.6868 15C22.5368 15 21.9993 15.25 21.7493 15.375L20.9993 16.6875L19.6868 18.9375L19.6868 18.9375Z" id="Vector-7" fill="#FDC040" fill-rule="evenodd" stroke="none" />
    <path d="M29.8069 25.5469L26.8819 19.7273C26.8201 19.6045 26.7044 19.5176 26.5692 19.4926C26.434 19.4675 26.2948 19.5073 26.1932 19.5999C25.9867 19.7882 25.7179 19.8919 25.4364 19.8919C24.8144 19.8919 24.3084 19.3856 24.3084 18.7633C24.3084 18.2257 24.6908 17.7602 25.2178 17.6564C25.3525 17.6299 25.4671 17.5419 25.5275 17.4185C25.588 17.2952 25.5872 17.1507 25.5256 17.028L24.789 15.5617C24.4355 14.859 23.7272 14.4224 22.9406 14.4223L22.9404 14.4223C22.8644 14.4223 22.7894 14.4276 22.7151 14.4356C22.6958 13.35 22.6678 12.2631 22.6308 11.1966C22.5935 10.1191 22.2767 9.06667 21.7145 8.15306C21.5872 7.94634 21.3165 7.88189 21.1099 8.00916C20.9032 8.13636 20.8388 8.40707 20.966 8.61373C21.4485 9.39779 21.7204 10.3014 21.7524 11.227C21.7926 12.3821 21.8221 13.5614 21.8413 14.7367C21.5275 14.9333 21.2666 15.2147 21.0922 15.5613L18.9422 19.8392C18.1099 18.5457 16.9445 17.5422 15.5849 17.5422C13.2135 17.5422 11.4327 20.5944 10.9804 22.9152L10.952 22.9152C10.7201 21.7251 10.1388 20.3431 9.30761 19.2784C9.30163 18.4411 9.30152 17.5999 9.30661 16.757C9.76066 16.766 10.2158 16.7719 10.6721 16.7719C11.8123 16.7719 12.9572 16.7438 14.093 16.6879C14.863 16.65 15.4879 16.0669 15.579 15.3014C15.7019 14.2676 15.7019 13.2193 15.579 12.1856C15.4879 11.4201 14.8631 10.8369 14.0933 10.7991C12.5564 10.7235 11 10.6994 9.45931 10.7262C9.68841 8.92206 10.8063 7.37054 12.4691 6.58537L18.7015 6.58537C19.1386 6.79174 19.5465 7.05682 19.9144 7.37587C19.9975 7.448 20.1 7.48333 20.2021 7.48333C20.3251 7.48333 20.4474 7.432 20.5343 7.3318C20.6933 7.14846 20.6735 6.8709 20.4902 6.71187C20.2922 6.54019 20.0837 6.38252 19.867 6.23791C20.2471 5.93948 20.4919 5.47629 20.4919 4.95674C20.4919 4.21095 19.9879 3.58112 19.3028 3.38881L19.3028 1.83477C19.3026 0.823076 18.4796 0 17.4678 0L13.7025 0C12.6908 0 11.8677 0.823076 11.8677 1.83477L11.8677 3.38893C11.1825 3.58123 10.6785 4.21106 10.6785 4.95685C10.6785 5.47635 10.9232 5.93942 11.3032 6.23785C10.6397 6.68035 10.0641 7.24819 9.61078 7.91435C8.95071 8.88426 8.58034 10.0193 8.53973 11.1966C8.45729 13.5757 8.41856 15.9808 8.42395 18.3611C7.80882 17.8572 7.10862 17.5423 6.34742 17.5423C5.27889 17.5423 4.19765 18.1965 3.30285 19.3844C3.15678 19.5782 3.19556 19.8538 3.38945 19.9998C3.58334 20.1459 3.85885 20.1071 4.00487 19.9132C4.42464 19.356 5.28715 18.4212 6.34748 18.4212C7.17337 18.4212 8.04097 18.9996 8.79057 20.0497C9.38413 20.8813 9.83941 21.9216 10.0552 22.9152L2.63933 22.9152C2.75159 22.3996 2.93013 21.8653 3.16545 21.3451C3.26547 21.124 3.16732 20.8637 2.94619 20.7636C2.72511 20.6636 2.46472 20.7617 2.36464 20.9828C2.07606 21.6208 1.865 22.2812 1.74348 22.9152L1.14007 22.9152C0.511412 22.9152 0 23.4266 0 24.0552C0 24.6838 0.511471 25.1953 1.14007 25.1953L1.35605 25.1953C1.429 25.8686 1.55199 26.5395 1.67229 27.1919C1.75801 27.6568 1.84666 28.1376 1.91405 28.6061C2.00534 29.2387 2.51112 29.731 3.14429 29.8032C4.2965 29.9342 5.32143 29.9997 6.34677 29.9997C7.37059 29.9997 8.39482 29.9344 9.54615 29.8038C9.75627 29.7799 9.9518 29.7094 10.1235 29.6038C10.572 29.8637 11.0773 29.9999 11.6035 29.9999L15.5855 29.9999L15.5844 29.9996C16.6101 29.9996 17.6355 29.9342 18.7883 29.8032C19.0936 29.7684 19.3687 29.6352 19.5826 29.4364C20.6699 29.8117 21.8009 29.9962 22.9268 29.9962C25.2169 29.9962 27.4853 29.2355 29.318 27.7781C29.9845 27.2486 30.1901 26.3102 29.8069 25.5469L29.8069 25.5469ZM12.7466 1.83477C12.7466 1.30771 13.1754 0.878917 13.7025 0.878917L17.4678 0.878917C17.9949 0.878917 18.4237 1.30771 18.4237 1.83477L18.4237 3.32816L12.7466 3.32816L12.7466 1.83477L12.7466 1.83477ZM12.3072 4.20708L18.8631 4.20708C19.2766 4.20708 19.6128 4.54341 19.6128 4.9568C19.6128 5.37024 19.2765 5.70657 18.8631 5.70657L12.3072 5.70657C11.8937 5.70657 11.5574 5.37024 11.5574 4.9568C11.5574 4.54341 11.8938 4.20708 12.3072 4.20708L12.3072 4.20708ZM14.0499 11.6771C14.3899 11.6937 14.6659 11.9513 14.7061 12.2895C14.8208 13.2544 14.8208 14.2328 14.7061 15.1976C14.6659 15.5358 14.3899 15.7934 14.0497 15.8101C12.4762 15.8876 10.8854 15.9102 9.31382 15.8789C9.32888 14.4535 9.35964 13.0261 9.40605 11.6064C10.9497 11.5781 12.5096 11.6013 14.0499 11.6771L14.0499 11.6771ZM21.8773 15.9562C22.0837 15.5461 22.481 15.3013 22.9403 15.3013L22.9404 15.3013C23.3998 15.3014 23.7973 15.5463 24.0036 15.9566L24.5174 16.9791C23.8642 17.3167 23.4295 17.9991 23.4295 18.7634C23.4295 19.8703 24.3298 20.7708 25.4364 20.7708C25.7463 20.7708 26.0478 20.7001 26.32 20.5664L28.7787 25.4582C28.7761 25.4603 28.7737 25.4627 28.771 25.4648C27.5349 26.4479 26.0568 27.1056 24.4966 27.3665C23.0901 27.6018 21.639 27.512 20.2756 27.1098C20.391 26.4832 20.5066 25.8404 20.5764 25.1953L20.7926 25.1953C21.4212 25.1953 21.9327 24.6839 21.9327 24.0552C21.9327 23.4266 21.4212 22.9152 20.7926 22.9152L20.1893 22.9152C20.0558 22.2299 19.8064 21.481 19.4601 20.7656L21.8773 15.9562L21.8773 15.9562ZM13.1416 20.0498C13.8913 18.9996 14.759 18.4212 15.5848 18.4212C16.4109 18.4212 17.2786 18.9996 18.0282 20.0498C18.6217 20.8814 19.0769 21.9217 19.2926 22.9153L11.877 22.9153C12.0927 21.9218 12.548 20.8815 13.1416 20.0498L13.1416 20.0498ZM0.878917 24.2943C0.878917 24.0184 0.996105 23.7942 1.14007 23.7942L20.7926 23.7942C20.9366 23.7942 21.0537 24.0184 21.0537 24.2943C21.0537 24.5698 20.9366 24.7942 20.7926 24.7942L1.14007 24.7942C0.996047 24.7942 0.878917 24.5698 0.878917 24.2943L0.878917 24.2943ZM18.6888 28.9301C16.4572 29.1837 14.718 29.1838 12.4857 28.9307C12.2465 28.9034 12.0555 28.7187 12.0215 28.482C11.9805 28.1947 11.9319 27.8525 11.881 27.4864C11.8153 27.018 11.4391 26.6908 10.9661 26.6909C10.4931 26.6909 10.117 27.018 10.0513 27.4868C10.0004 27.8525 9.95185 28.1948 9.91096 28.4815C9.87685 28.7187 9.68589 28.9034 9.44683 28.9307C7.21415 29.1838 5.47489 29.1837 3.24373 28.9301C3.0073 28.9031 2.81822 28.7183 2.78394 28.4808C2.71409 27.9953 2.62386 27.5059 2.53655 27.0326C2.42505 26.428 2.31132 25.8072 2.24042 25.1954L19.6919 25.1954C19.6209 25.8089 19.5069 26.4314 19.3952 27.0376C19.3082 27.5094 19.2183 27.9972 19.1484 28.4812C19.1142 28.7185 18.9251 28.9031 18.6888 28.9301L18.6888 28.9301ZM28.771 27.0902C26.3103 29.047 22.9906 29.6287 20.0098 28.6523C20.0125 28.637 20.0162 28.6222 20.0184 28.6068C20.0483 28.3994 20.0827 28.1897 20.1188 27.98C21.037 28.2414 21.99 28.374 22.9448 28.374C23.5122 28.374 24.0802 28.3273 24.6416 28.2334C26.2652 27.9619 27.807 27.2969 29.1184 26.3064C29.1353 26.6022 29.0123 26.8985 28.771 27.0902L28.771 27.0902ZM10.6991 28.9148C10.7602 28.8167 10.8057 28.7137 10.8304 28.606C10.8963 28.3179 10.9744 27.9746 11.0562 27.6083C11.0618 27.5834 11.0648 27.5697 11.1274 27.5697C11.1899 27.5697 11.1929 27.5834 11.1984 27.6079C11.2803 27.9747 11.3584 28.318 11.4244 28.6066C11.4657 28.7852 11.5617 28.9521 11.6991 29.1021C11.3504 29.073 11.0142 29.01 10.6991 28.9148L10.6991 28.9148Z" id="Vector" fill="#3BB77E" fill-rule="evenodd" stroke="none" />
    <path d="M23.3499 25.3941C23.646 25.8249 24.0922 26.1144 24.6061 26.2096C24.7263 26.2318 24.8468 26.2429 24.9665 26.2429C25.3585 26.2429 25.741 26.1249 26.071 25.898C26.5018 25.6019 26.7913 25.1557 26.8865 24.6418C26.9817 24.1279 26.871 23.6076 26.5749 23.1769C26.2788 22.7462 25.8326 22.4566 25.3187 22.3614C24.8046 22.2663 24.2845 22.377 23.8538 22.673C23.4231 22.9692 23.1335 23.4153 23.0383 23.9292C22.9431 24.4432 23.0538 24.9635 23.3499 25.3941L23.3499 25.3941ZM23.9025 24.0893C23.9549 23.8061 24.1145 23.5604 24.3517 23.3973C24.5335 23.2723 24.7442 23.2073 24.9601 23.2073C25.026 23.2073 25.0925 23.2134 25.1586 23.2256C25.4417 23.2781 25.6875 23.4376 25.8507 23.6749C26.0138 23.9121 26.0747 24.1987 26.0223 24.4818C25.9699 24.765 25.8104 25.0107 25.5731 25.1738C25.3358 25.3369 25.0492 25.3979 24.7662 25.3455C24.4831 25.2931 24.2373 25.1336 24.0742 24.8963C23.911 24.659 23.85 24.3724 23.9025 24.0893L23.9025 24.0893Z" id="Vector" fill="#3BB77E" fill-rule="evenodd" stroke="none" />
    <path d="M21.5043 22.7582C21.592 22.7744 21.6799 22.7825 21.7671 22.7825C22.0529 22.7825 22.3318 22.6964 22.5724 22.531C22.8864 22.3151 23.0975 21.9899 23.1669 21.6152C23.2363 21.2405 23.1556 20.8612 22.9397 20.5472C22.7239 20.2331 22.3985 20.022 22.0239 19.9526C21.2504 19.8095 20.5046 20.3222 20.3614 21.0957C20.218 21.8692 20.7308 22.615 21.5043 22.7582L21.5043 22.7582ZM21.2255 21.2557C21.2805 20.9587 21.5669 20.7617 21.8638 20.8169C22.0077 20.8435 22.1325 20.9246 22.2154 21.0452C22.2983 21.1657 22.3293 21.3113 22.3027 21.4552C22.276 21.599 22.195 21.724 22.0744 21.8068C21.9539 21.8897 21.8084 21.9207 21.6644 21.8941C21.3674 21.839 21.1705 21.5526 21.2255 21.2557L21.2255 21.2557Z" id="Vector" fill="#3BB77E" fill-rule="evenodd" stroke="none" />
  </g>
</svg>