<?xml version="1.0" encoding="utf-8"?>
<svg width="30.000214px" height="28.344116px" viewBox="0 0 30.000214 28.344116" version="1.1" xmlns:xlink="http://www.w3.org/1999/xlink" xmlns="http://www.w3.org/2000/svg">
  <g id="Group">
    <path d="M8.43768 20.5469C7.53768 20.3969 7.06268 20.7344 6.93768 20.9219L6.75018 21.1094C6.56268 21.3594 6.18768 21.8969 6.18768 22.0469L6.18768 23.1719C6.18768 23.3594 6.18768 23.9219 6.37518 24.2969C6.56268 24.6719 6.56268 24.8594 6.75018 25.0469C6.93768 25.2344 7.12518 25.4219 7.31268 25.4219C7.50018 25.4219 8.43768 25.6094 8.62518 25.6094L10.6877 25.6094C11.2502 25.6094 11.4377 25.4219 11.8127 25.4219C12.1877 25.4219 12.5627 25.2344 12.5627 25.0469C12.5627 24.8594 12.7502 24.6719 12.9377 24.4844C13.1252 24.2969 12.9377 23.9219 13.1252 23.6127C13.2524 23.4028 13.207 23.2748 13.1646 23.1555C13.1445 23.0991 13.1252 23.0446 13.1252 22.9844L13.1252 22.0469C13.1252 21.8594 12.9377 21.6719 12.9377 21.4844C12.9377 21.2969 12.5627 21.1094 12.3752 20.9219C12.2252 20.7719 11.8127 20.6094 11.6252 20.5469C10.9377 20.6094 9.33768 20.6969 8.43768 20.5469L8.43768 20.5469Z" id="Vector-5" fill="#FDC040" fill-rule="evenodd" stroke="none" />
    <path d="M25.1252 10.7969C22.4252 11.8469 17.2502 11.2344 15.0002 10.7969L14.4377 11.1719L13.5002 12.6719L12.9377 13.9844C13.5377 14.1344 15.3127 15.6719 16.1252 16.4219L16.6877 17.5469C18.0377 17.6969 18.3752 18.8594 18.3752 19.4219L18.5627 23.3594C21.1127 24.1094 27.0002 22.9219 29.6252 22.2344C29.7752 21.9344 29.1877 18.7344 28.8752 17.1719C28.1252 14.9219 26.0627 11.9844 25.1252 10.7969L25.1252 10.7969Z" id="Vector-4" fill="#FDC040" fill-rule="evenodd" stroke="none" />
    <path d="M27.7858 13.7661C26.8903 12.1293 26 11.0716 25.6793 10.7135L25.6793 8.29773L29.8396 4.88164C29.9387 4.80025 29.9973 4.67972 30.0001 4.55151C30.0029 4.42331 29.9495 4.30031 29.854 4.21476L26.7063 1.39336C26.5255 1.2314 26.2477 1.24664 26.0857 1.42729C25.9237 1.608 25.9389 1.88586 26.1196 2.04788L28.886 4.52743L25.6795 7.16033L25.6795 5.36307C25.6795 5.12036 25.4828 4.9236 25.24 4.9236C24.9972 4.9236 24.8005 5.12036 24.8005 5.36307L24.8003 10.5135C21.6624 11.0213 18.4866 11.0213 15.3488 10.5134L15.3488 5.36307C15.3488 5.12036 15.1521 4.9236 14.9093 4.9236C14.6665 4.9236 14.4698 5.12036 14.4698 5.36307L14.4698 7.1605L11.2631 4.52743L14.6841 1.46069C15.1874 1.00938 15.8373 0.821817 16.4628 0.896117C16.5916 1.44938 16.8874 2.60988 17.3416 3.76597C18.088 5.66572 18.9586 6.80143 19.9292 7.14146C19.9763 7.15792 20.0254 7.16619 20.0745 7.16619C20.1236 7.16619 20.1727 7.15792 20.2197 7.14146C21.1903 6.80143 22.061 5.66572 22.8076 3.76603C23.261 2.6121 23.5565 1.45465 23.6858 0.900042C24.073 0.853752 24.4729 0.905551 24.8446 1.0647C25.0679 1.16027 25.3261 1.05673 25.4216 0.833653C25.5172 0.610519 25.4137 0.352228 25.1906 0.256716C24.0616 -0.226642 22.7455 -0.00462167 21.8372 0.82211L21.4316 1.19126C20.6579 1.89582 19.4914 1.89582 18.7179 1.19126L18.3124 0.82211C17.115 -0.268011 15.3028 -0.27475 14.0973 0.806347L10.295 4.21488C10.1995 4.30043 10.1461 4.42348 10.149 4.55163C10.1517 4.67984 10.2104 4.80037 10.3094 4.88176L14.4697 8.29785L14.4697 10.7133C14.1816 11.0339 13.4412 11.9095 12.652 13.2522C11.9837 12.8961 11.2768 12.5444 10.5608 12.1885C9.93513 11.8773 9.30493 11.5639 8.69999 11.2457C9.29122 10.5053 9.74728 9.6673 9.94715 8.68482C10.2526 7.18341 9.80581 5.84227 8.72149 5.00522C7.69354 4.21172 6.27792 4.03481 5.19876 4.56505C4.6203 4.84924 3.64989 5.58685 3.64989 7.33324C3.64989 8.43872 4.35193 9.48378 5.79626 10.5282C6.24804 10.8549 6.75595 11.1713 7.29656 11.48C6.62633 12.1393 5.85714 12.7261 5.13049 13.2803C3.56604 14.4735 2.08174 15.6065 2.04336 17.1331C1.08625 17.3625 0.347768 18.1607 0.219208 19.166C-0.0730693 21.4547 -0.0730693 23.7757 0.219208 26.0646C0.36687 27.2186 1.31876 28.1006 2.48271 28.1616C4.81648 28.2833 7.16665 28.3441 9.51688 28.3441C11.867 28.3441 14.2174 28.2833 16.5512 28.1616C17.7155 28.1006 18.6671 27.2185 18.814 26.0646C18.9016 25.3803 18.9623 24.6931 18.9975 24.0048C19.3551 24.0155 19.7156 24.0212 20.0745 24.0212C25.8116 24.0212 29.5547 22.6788 29.7113 22.6217C29.8847 22.5584 30.0001 22.3935 30.0001 22.2089C30.0002 18.5758 28.796 15.6124 27.7858 13.7661L27.7858 13.7661ZM18.1262 1.84086C19.2367 2.85276 20.9123 2.85276 22.0235 1.84098L22.429 1.47188C22.5114 1.39688 22.5985 1.32885 22.6894 1.26779C22.5367 1.85 22.3026 2.64837 21.9897 3.4444C21.2572 5.30852 20.5655 6.00704 20.0747 6.25027C19.5839 6.00704 18.8922 5.30852 18.1598 3.4444C17.847 2.64826 17.6128 1.84936 17.4602 1.26691C17.5506 1.32803 17.6378 1.39623 17.7209 1.47182L18.1262 1.84086L18.1262 1.84086ZM4.52906 7.33301C4.52906 6.37801 4.8947 5.69355 5.58655 5.35363C5.87589 5.21148 6.20655 5.14251 6.54688 5.14251C7.11561 5.14251 7.71118 5.33524 8.18464 5.7007C8.66003 6.06763 9.40924 6.92049 9.08608 8.50932C8.90894 9.3803 8.47557 10.138 7.91 10.8173C6.01061 9.75291 4.52906 8.62288 4.52906 7.33301L4.52906 7.33301ZM27.6789 22.2857C27.5885 20.9646 27.4214 19.6482 27.1806 18.3653C27.1358 18.1268 26.9064 17.9698 26.6676 18.0145C26.429 18.0592 26.2719 18.2889 26.3168 18.5275C26.5593 19.8196 26.7244 21.1469 26.8102 22.4782C26.4718 22.5475 26.0881 22.6195 25.6634 22.6896C25.6103 20.9223 25.4217 19.1624 25.1007 17.4511C25.0559 17.2125 24.8262 17.0556 24.5877 17.1001C24.3492 17.1449 24.1921 17.3746 24.2368 17.6131C24.5558 19.314 24.7409 21.0643 24.7882 22.8218C23.4778 23.0016 21.8775 23.1422 20.0745 23.1422C19.7259 23.1422 19.3757 23.1367 19.0284 23.1263C19.0532 21.8037 18.9821 20.4795 18.8141 19.1661C18.6824 18.1312 17.9039 17.316 16.9057 17.1145C16.583 15.7716 15.2043 14.6928 13.4271 13.6787C14.1295 12.4898 14.7867 11.6879 15.0736 11.3589C16.7335 11.6351 18.4041 11.7736 20.0748 11.7736C21.7453 11.7736 23.4158 11.6351 25.0756 11.3589C25.4054 11.736 26.2217 12.7331 27.029 14.2145C27.954 15.9118 29.0512 18.602 29.1179 21.8929C28.8321 21.9831 28.342 22.1274 27.6789 22.2857L27.6789 22.2857ZM2.52854 17.9469C3.31191 17.9063 4.09557 17.8723 4.85779 17.8459C5.10038 17.8375 5.29017 17.6341 5.28173 17.3915C5.27329 17.1488 5.07143 16.9598 4.82732 16.9675C4.20573 16.989 3.56991 17.0158 2.93168 17.0468C3.04488 15.9772 4.26896 15.0427 5.66372 13.9789C6.48307 13.3539 7.35287 12.6905 8.10049 11.9223C8.77394 12.2812 9.47709 12.6309 10.1696 12.9752C10.8628 13.3199 11.5616 13.6675 12.2244 14.0211C11.7891 14.8483 11.3609 15.8109 11.0065 16.8954C9.52813 16.8789 8.05221 16.8853 6.58731 16.9175C6.3446 16.9228 6.15223 17.1238 6.15757 17.3665C6.1629 17.6092 6.36289 17.8036 6.60653 17.7962C9.88263 17.7243 13.2132 17.7751 16.5056 17.9469C17.2449 17.9852 17.8491 18.5446 17.9424 19.2772C18.0041 19.7595 18.0516 20.2433 18.0864 20.7279C18.0509 21.2143 18.0026 21.6971 17.9424 22.1643C17.8492 22.8962 17.2448 23.4553 16.5049 23.4937C15.5098 23.5457 14.5102 23.5861 13.5247 23.6157C13.5458 22.9951 13.5321 22.372 13.4824 21.7549C13.4152 20.9203 12.7381 20.2565 11.9075 20.2111C10.4855 20.1333 9.04342 20.1333 7.62171 20.2111C6.79111 20.2565 6.11409 20.9203 6.04682 21.7549C5.99672 22.3767 5.98318 23.0046 6.00498 23.63C4.84765 23.5992 3.68089 23.554 2.52854 23.4937C1.78894 23.4554 1.18446 22.8963 1.09129 22.1641C1.03235 21.7025 0.984003 21.2212 0.947205 20.7332C0.982011 20.2468 1.02947 19.7612 1.09129 19.2772C1.18493 18.5447 1.78941 17.9852 2.52854 17.9469L2.52854 17.9469ZM12.9978 14.4474C14.4215 15.2622 15.5719 16.1144 15.9585 17.041C14.6186 16.977 13.2738 16.9327 11.9293 16.9086C12.2462 15.9912 12.619 15.1663 12.9978 14.4474L12.9978 14.4474ZM12.6062 24.296C12.5741 24.6945 12.2531 25.0113 11.8595 25.0328L11.8594 25.0328C10.4694 25.1089 9.05983 25.1089 7.66964 25.0328C7.27605 25.0113 6.955 24.6945 6.92289 24.296C6.85685 23.4764 6.85685 22.6452 6.92289 21.8255C6.955 21.427 7.27605 21.1103 7.6697 21.0887C8.3647 21.0507 9.06463 21.0316 9.76456 21.0316C10.4645 21.0316 11.1644 21.0507 11.8595 21.0887C12.2531 21.1103 12.5741 21.427 12.6062 21.8255C12.6723 22.6452 12.6723 23.4764 12.6062 24.296L12.6062 24.296ZM16.5055 27.2837C11.8683 27.5254 7.16589 27.5254 2.52883 27.2837C1.78958 27.2449 1.18493 26.6852 1.09129 25.953C0.994375 25.1939 0.931443 24.4312 0.900973 23.6673C1.31032 24.0777 1.86681 24.3395 2.48283 24.3714C3.67005 24.4337 4.87279 24.4799 6.06492 24.5108C6.19378 25.2766 6.83956 25.8677 7.62165 25.9105C8.33265 25.9494 9.04864 25.9688 9.76456 25.9688C10.4805 25.9688 11.1965 25.9494 11.9074 25.9105C12.6943 25.8674 13.343 25.2693 13.4663 24.4968C14.4856 24.4669 15.5206 24.4253 16.5505 24.3714C17.1669 24.3395 17.7236 24.0775 18.133 23.667C18.1025 24.431 18.0394 25.1939 17.9423 25.9531C17.8491 26.6853 17.2448 27.2449 16.5055 27.2837L16.5055 27.2837Z" id="Vector" fill="#3BB77E" fill-rule="evenodd" stroke="none" />
    <path d="M11.5281 21.7553C10.941 21.7278 10.3478 21.7139 9.76455 21.7139C9.18129 21.7139 8.58794 21.7278 8.00093 21.7553C7.77674 21.7658 7.59649 21.9435 7.58278 22.1675C7.54675 22.7602 7.54675 23.3613 7.58278 23.954C7.59644 24.178 7.77674 24.3558 8.00093 24.3662C8.58748 24.3937 9.18088 24.4076 9.76455 24.4076C10.3482 24.4076 10.9415 24.3937 11.5281 24.3662C11.7522 24.3558 11.9325 24.178 11.9462 23.954C11.9822 23.3613 11.9822 22.7602 11.9462 22.1675C11.9325 21.9435 11.7523 21.7658 11.5281 21.7553L11.5281 21.7553ZM11.0872 23.5675C10.2039 23.6014 9.32508 23.6014 8.44186 23.5675C8.43243 23.2516 8.43243 22.9343 8.44186 22.6184C9.32567 22.5844 10.2034 22.5844 11.0872 22.6184C11.0967 22.9343 11.0967 23.2516 11.0872 23.5675L11.0872 23.5675Z" id="Vector" fill="#3BB77E" fill-rule="evenodd" stroke="none" />
  </g>
</svg>