<?xml version="1.0" encoding="utf-8"?>
<svg width="27.047646px" height="30px" viewBox="0 0 27.047646 30" version="1.1" xmlns:xlink="http://www.w3.org/1999/xlink" xmlns="http://www.w3.org/2000/svg">
  <g id="Group">
    <path d="M22.1591 13.3125L11.5852 13.3125L11.5852 14.0625L11.7615 14.4375L12.6426 15.375L13.3476 15.75L13.7 16.3125L13.5238 17.0625L12.2902 17.625L11.5852 18.9375L11.409 22.875L11.9377 27.1875L12.2902 28.5L12.9951 29.25C13.1713 29.3125 13.5943 29.4375 13.8763 29.4375C14.2287 29.4375 15.8148 29.625 16.1673 29.625L19.3394 29.625L18.987 28.875C18.8695 28.5625 18.6345 27.825 18.6345 27.375C18.6345 26.925 18.517 25.6875 18.4583 25.125L18.4583 22.3125C18.4583 22.0125 18.8107 19.8125 18.987 18.75L18.987 18.1875C18.987 18 19.5157 18 19.6919 17.8125C19.8681 17.625 20.3968 17.625 20.5731 17.625C20.7493 17.625 21.278 17.4375 21.4542 17.4375C21.5631 17.4375 21.4701 17.3659 21.3415 17.2669C21.2621 17.2057 21.1691 17.1341 21.1017 17.0625C20.9928 16.9466 21.0185 16.9024 21.0541 16.8412C21.076 16.8034 21.1017 16.7591 21.1017 16.6875C21.1017 16.5 21.1017 16.125 20.9255 15.9375C20.7845 15.7875 21.2192 15.5 21.4542 15.375C21.6304 15.3125 21.9829 15.15 21.9829 15C21.9829 14.85 22.3354 14.6875 22.5116 14.625L22.864 14.0625L22.864 13.5L22.1591 13.3125L22.1591 13.3125Z" id="Vector-3" fill="#FDC040" fill-rule="evenodd" stroke="none" />
    <path d="M2.08902 23.0973C2.08902 24.0366 2.80721 24.8007 3.68997 24.8007C4.57278 24.8007 5.29098 24.0366 5.29098 23.0973C5.29098 22.1581 4.57278 21.3939 3.68997 21.3939C2.80721 21.3939 2.08902 22.1581 2.08902 23.0973L2.08902 23.0973ZM4.46495 23.0973C4.46495 23.552 4.11733 23.9218 3.69003 23.9218C3.26272 23.9218 2.91516 23.552 2.91516 23.0973C2.91516 22.6427 3.26278 22.2728 3.69003 22.2728C4.11728 22.2728 4.46495 22.6427 4.46495 23.0973L4.46495 23.0973Z" id="Vector" fill="#3BB77E" fill-rule="evenodd" stroke="none" />
    <path d="M5.72529 20.7492C6.42031 20.7492 6.98579 20.1476 6.98579 19.4082C6.98579 18.6687 6.42031 18.0672 5.72529 18.0672C5.03028 18.0672 4.46485 18.6687 4.46485 19.4082C4.46485 20.1476 5.03028 20.7492 5.72529 20.7492L5.72529 20.7492ZM5.79091 18.946C6.06667 18.946 6.29094 19.1703 6.29094 19.446C6.29094 19.7217 6.06667 19.946 5.79091 19.946C5.51522 19.946 5.29094 19.7217 5.29094 19.446C5.29094 19.1703 5.51528 18.946 5.79091 18.946L5.79091 18.946Z" id="Vector" fill="#3BB77E" fill-rule="evenodd" stroke="none" />
    <path d="M10.1208 26.249C10.1208 25.5096 9.55532 24.908 8.86031 24.908C8.16529 24.908 7.59981 25.5096 7.59981 26.249C7.59981 26.9885 8.16529 27.59 8.86031 27.59C9.55532 27.59 10.1208 26.9885 10.1208 26.249L10.1208 26.249ZM8.42595 26.2869C8.42595 26.0112 8.65022 25.7869 8.92595 25.7869C9.20169 25.7869 9.42595 26.0112 9.42595 26.2869C9.42595 26.5626 9.20169 26.7869 8.92595 26.7869C8.65022 26.7869 8.42595 26.5626 8.42595 26.2869L8.42595 26.2869Z" id="Vector" fill="#3BB77E" fill-rule="evenodd" stroke="none" />
    <path d="M26.7406 18.8348C26.6216 17.9143 25.8742 17.2201 25.002 17.2201L24.7094 17.2201L24.9913 16.4401C25.0732 16.2136 24.967 15.9593 24.754 15.8722C24.541 15.785 24.3021 15.8982 24.2203 16.1246L23.8244 17.2201L22.1055 17.2201C22.0473 17.1904 21.9884 17.1625 21.9283 17.1387C21.4989 16.9684 21.2812 16.7031 21.2812 16.3505C21.2812 16.0218 21.8035 15.7552 22.0284 15.6557C22.6957 15.3594 23.174 14.7328 23.3078 13.9792C23.5851 12.4143 23.711 10.7399 23.7614 9.88055C23.7871 9.4343 23.6921 8.99771 23.4869 8.61803C22.4086 6.62326 20.4553 5.265 19.802 4.84922L19.802 3.44391L19.8235 3.44391C20.0517 3.44391 20.2366 3.24715 20.2366 3.00445L20.2366 1.42424C20.2366 0.638906 19.636 0 18.8979 0L15.6267 0C14.8886 0 14.288 0.638906 14.288 1.42424L14.288 3.00445C14.288 3.24715 14.4729 3.44391 14.7011 3.44391L14.7227 3.44391L14.7227 4.84904C14.3011 5.11734 13.3379 5.77869 12.418 6.74982L12.418 6.4415C12.8884 6.17068 13.2087 5.64088 13.2087 5.03291C13.2087 4.15043 12.5339 3.43254 11.7045 3.43254L5.17815 3.43254C4.3487 3.43254 3.67396 4.15049 3.67396 5.03291C3.67396 5.641 3.99442 6.17092 4.46507 6.44168L4.46507 7.78623C3.8997 8.13715 2.36378 9.18023 1.01077 10.9095C0.767677 11.2211 0.612759 11.5991 0.562753 12.003C0.49551 12.5465 0.394727 13.4338 0.296589 14.5743C0.275771 14.816 0.443081 15.0299 0.670254 15.052C0.683031 15.0533 0.695753 15.0539 0.708364 15.0539C0.919457 15.0539 1.0996 14.8826 1.1192 14.6545C1.21613 13.5283 1.31543 12.6533 1.38173 12.1178C1.40332 11.9435 1.45806 11.7778 1.54133 11.6296L10.9016 11.6296C10.9745 12.3606 11.0763 13.1843 11.2168 13.9789C11.3499 14.7325 11.8283 15.3594 12.4967 15.6558C12.721 15.7551 13.2429 16.0216 13.2429 16.3504C13.2429 16.7033 13.0254 16.9685 12.5962 17.1387C11.8254 17.445 11.282 18.2005 11.2118 19.0634C11.0492 21.0537 10.9285 24.9052 11.9475 28.3368C12.0333 28.6259 12.1671 28.8872 12.3376 29.1128C12.2583 29.118 12.1788 29.1212 12.099 29.1212L4.78328 29.1212C2.78635 29.1212 1.10753 27.4644 0.961257 25.3495C0.772358 22.6177 0.781445 19.6053 0.988352 16.396C1.00394 16.1538 0.832112 15.9441 0.604553 15.9275C0.377159 15.9107 0.17978 16.0937 0.164195 16.3358C-0.0453557 19.5865 -0.0543875 22.6408 0.137429 25.4139C0.223893 26.6648 0.748127 27.8237 1.61353 28.6774C2.47817 29.5303 3.6039 30 4.78328 30L12.0991 30C12.4982 30 12.8933 29.9461 13.276 29.8402C13.5293 29.9436 13.8035 29.9997 14.0883 29.9997L25.002 30C25.8742 30 26.6216 29.3058 26.7406 28.3852C27.15 25.2166 27.15 22.0035 26.7406 18.8348L26.7406 18.8348ZM15.1141 1.42424C15.1141 1.12354 15.3441 0.878906 15.6267 0.878906L18.8979 0.878906C19.1805 0.878906 19.4105 1.12354 19.4105 1.42424L19.4105 2.565L15.1141 2.565L15.1141 1.42424L15.1141 1.42424ZM18.9759 3.44391L18.9759 4.66377L15.5488 4.66377L15.5488 3.44391L18.9759 3.44391L18.9759 3.44391ZM5.17815 4.31145L11.7045 4.31145C12.0784 4.31145 12.3827 4.63512 12.3827 5.03291C12.3827 5.43059 12.0787 5.75408 11.705 5.75437L5.1776 5.75437C4.80387 5.75408 4.49999 5.43053 4.49999 5.03291C4.49999 4.63512 4.8042 4.31145 5.17815 4.31145L5.17815 4.31145ZM15.2447 5.54268L19.28 5.54268C19.6287 5.75941 20.9393 6.61898 21.988 7.90189L12.5365 7.90189C13.5852 6.61875 14.8963 5.75912 15.2447 5.54268L15.2447 5.54268ZM5.29115 6.63334L11.5919 6.63334L11.5919 7.63334L5.29115 7.63334L5.29115 6.63334L5.29115 6.63334ZM2.25782 10.7507C3.44981 9.45053 4.65865 8.67937 4.98435 8.4832L11.1131 8.4832C11.0878 8.52773 11.0625 8.57215 11.0381 8.61732C10.8323 8.99678 10.7371 9.43354 10.7628 9.88131C10.7767 10.1163 10.7965 10.4127 10.8232 10.7507L2.25782 10.7507L2.25782 10.7507ZM22.9369 9.82623C22.8975 10.4978 22.8109 11.6791 22.6399 12.9028L11.8851 12.9028C11.7144 11.6803 11.6271 10.4984 11.5872 9.82676C11.5715 9.55254 11.629 9.28629 11.7538 9.05602C11.8042 8.96279 11.857 8.87109 11.9117 8.78074L22.6128 8.78074C22.6675 8.87109 22.7204 8.96285 22.7708 9.05607C22.8952 9.28623 22.9526 9.55272 22.9369 9.82623L22.9369 9.82623ZM25.002 29.1211L20.4364 29.1211L20.4364 29.1208L20.1468 29.1208C19.6876 29.1179 19.2949 28.7513 19.2321 28.2656C19.1671 27.7618 19.1124 27.2549 19.0695 26.7588C19.0486 26.5171 18.8476 26.3389 18.6204 26.3614C18.3932 26.3836 18.226 26.5975 18.2469 26.8392C18.2909 27.3483 18.347 27.8684 18.4137 28.3852C18.4484 28.6536 18.5368 28.9025 18.6659 29.1207L14.0883 29.1207C13.4652 29.1207 12.9214 28.6993 12.7353 28.072C11.7594 24.7853 11.8775 21.0647 12.0348 19.1392C12.0777 18.6124 12.4115 18.1503 12.885 17.9621C13.6374 17.6636 14.069 17.0762 14.069 16.3504C14.069 15.9167 13.8513 15.3033 12.8143 14.8444C12.4039 14.6624 12.1102 14.2781 12.0286 13.8164C12.0266 13.8049 12.0246 13.7932 12.0226 13.7817L22.5021 13.7817C22.5001 13.7931 22.4981 13.8046 22.4961 13.8161C22.414 14.278 22.1203 14.6624 21.7106 14.8443C20.6729 15.3036 20.455 15.9168 20.455 16.3504C20.455 16.6719 20.5401 16.966 20.6999 17.2201L20.1522 17.2201C19.28 17.2201 18.5326 17.9143 18.4136 18.8348C18.147 20.8945 18.0534 22.9932 18.1353 25.0725C18.1449 25.315 18.3396 25.503 18.5652 25.4931C18.7932 25.483 18.9702 25.2782 18.9607 25.0357C18.8809 23.0087 18.9721 20.9627 19.232 18.9546C19.2951 18.4669 19.6907 18.099 20.1523 18.099L25.002 18.099C25.4635 18.099 25.8591 18.4669 25.9222 18.9545C25.9859 19.4471 26.0382 19.941 26.0816 20.4354C25.7665 20.3146 25.4322 20.2521 25.0895 20.2521C23.4764 20.2521 22.1641 21.6483 22.1641 23.3646C22.1641 25.0805 23.4764 26.4765 25.0895 26.4765C25.4472 26.4765 25.7955 26.4086 26.1225 26.2771C26.0736 26.9413 26.0077 27.6044 25.9222 28.2654C25.8591 28.7532 25.4635 29.1211 25.002 29.1211L25.002 29.1211ZM26.183 25.2708C25.854 25.4849 25.4797 25.5976 25.0895 25.5976C23.9319 25.5976 22.9902 24.5958 22.9902 23.3646C22.9902 22.133 23.932 21.131 25.0895 21.131C25.4691 21.131 25.834 21.2376 26.1559 21.4403C26.232 22.7158 26.2413 23.9946 26.183 25.2708L26.183 25.2708Z" id="Vector" fill="#3BB77E" fill-rule="evenodd" stroke="none" />
  </g>
</svg>