<svg width="15" height="15" viewBox="0 0 15 15" fill="none" xmlns="http://www.w3.org/2000/svg">
<g id="fi-rs-heart 1" clip-path="url(#clip0_3374_3211)">
<g id="01 align center">
<path id="Vector" d="M11.1578 0.726807C10.5009 0.737024 9.85841 0.920388 9.29509 1.25838C8.73177 1.59638 8.26761 2.07703 7.94948 2.65181C7.63135 2.07703 7.16719 1.59638 6.60387 1.25838C6.04054 0.920388 5.39801 0.737024 4.74115 0.726807C3.69403 0.772301 2.70747 1.23037 1.99702 2.00094C1.28656 2.77151 0.909958 3.79195 0.949479 4.83931C0.949479 8.79139 7.34048 13.356 7.61231 13.5496L7.94948 13.7882L8.28665 13.5496C8.55848 13.3571 14.9495 8.79139 14.9495 4.83931C14.989 3.79195 14.6124 2.77151 13.9019 2.00094C13.1915 1.23037 12.2049 0.772301 11.1578 0.726807ZM7.94948 12.3521C6.0519 10.9346 2.11615 7.45206 2.11615 4.83931C2.07627 4.10122 2.32986 3.37732 2.82161 2.82546C3.31336 2.27361 4.00337 1.93859 4.74115 1.89347C5.47893 1.93859 6.16894 2.27361 6.66068 2.82546C7.15243 3.37732 7.40602 4.10122 7.36615 4.83931H8.53281C8.49294 4.10122 8.74653 3.37732 9.23827 2.82546C9.73002 2.27361 10.42 1.93859 11.1578 1.89347C11.8956 1.93859 12.5856 2.27361 13.0773 2.82546C13.5691 3.37732 13.8227 4.10122 13.7828 4.83931C13.7828 7.45322 9.84706 10.9346 7.94948 12.3521Z" fill="#3BB77E"/>
</g>
</g>
<defs>
<clipPath id="clip0_3374_3211">
<rect width="14" height="14" fill="white" transform="translate(0.949463 0.191895)"/>
</clipPath>
</defs>
</svg>
