<svg width="17" height="17" viewBox="0 0 17 17" fill="none" xmlns="http://www.w3.org/2000/svg">
<g id="fi-rs-headset 1" clip-path="url(#clip0_3374_2696)">
<g id="01 align center">
<path id="Vector" d="M14.606 8.71789V7.76855C14.606 6.17726 13.9739 4.65113 12.8486 3.52591C11.7234 2.4007 10.1973 1.76855 8.60601 1.76855C7.01471 1.76855 5.48858 2.4007 4.36336 3.52591C3.23815 4.65113 2.60601 6.17726 2.60601 7.76855V8.71789C1.90678 9.02578 1.33454 9.56452 0.985087 10.2439C0.635634 10.9233 0.530179 11.7022 0.686377 12.45C0.842575 13.1979 1.25094 13.8694 1.84312 14.3522C2.43529 14.8349 3.17533 15.0996 3.93934 15.1019H5.27267V8.43522H3.93934V7.76855C3.93934 6.53088 4.431 5.34389 5.30617 4.46872C6.18134 3.59355 7.36833 3.10189 8.60601 3.10189C9.84368 3.10189 11.0307 3.59355 11.9058 4.46872C12.781 5.34389 13.2727 6.53088 13.2727 7.76855V8.43522H11.9393V13.7686H9.27267V15.1019H13.2727C14.0367 15.0996 14.7767 14.8349 15.3689 14.3522C15.9611 13.8694 16.3694 13.1979 16.5256 12.45C16.6818 11.7022 16.5764 10.9233 16.2269 10.2439C15.8775 9.56452 15.3052 9.02578 14.606 8.71789ZM3.93934 13.7686C3.40891 13.7686 2.9002 13.5578 2.52513 13.1828C2.15005 12.8077 1.93934 12.299 1.93934 11.7686C1.93934 11.2381 2.15005 10.7294 2.52513 10.3543C2.9002 9.97927 3.40891 9.76855 3.93934 9.76855V13.7686ZM13.2727 13.7686V9.76855C13.8031 9.76855 14.3118 9.97927 14.6869 10.3543C15.062 10.7294 15.2727 11.2381 15.2727 11.7686C15.2727 12.299 15.062 12.8077 14.6869 13.1828C14.3118 13.5578 13.8031 13.7686 13.2727 13.7686Z" fill="#3BB77E"/>
</g>
</g>
<defs>
<clipPath id="clip0_3374_2696">
<rect width="16" height="16" fill="white" transform="translate(0.605957 0.435059)"/>
</clipPath>
</defs>
</svg>
