<svg width="17" height="17" viewBox="0 0 17 17" fill="none" xmlns="http://www.w3.org/2000/svg">
<g id="fi-rs-marker" clip-path="url(#clip0_3374_2689)">
<g id="01 align center">
<path id="Vector" d="M8.27274 16.7564L7.80608 16.3564C7.16274 15.8178 1.54541 10.9664 1.54541 7.41776C1.54541 5.63356 2.25418 3.92244 3.5158 2.66082C4.77742 1.3992 6.48854 0.69043 8.27274 0.69043C10.0569 0.69043 11.7681 1.3992 13.0297 2.66082C14.2913 3.92244 15.0001 5.63356 15.0001 7.41776C15.0001 10.9664 9.38274 15.8178 8.74208 16.3591L8.27274 16.7564ZM8.27274 2.1451C6.87483 2.14668 5.53463 2.70271 4.54616 3.69118C3.55769 4.67965 3.00166 6.01985 3.00008 7.41776C3.00008 9.6471 6.45608 13.2084 8.27274 14.8384C10.0894 13.2078 13.5454 9.64443 13.5454 7.41776C13.5438 6.01985 12.9878 4.67965 11.9993 3.69118C11.0109 2.70271 9.67065 2.14668 8.27274 2.1451Z" fill="#3BB77E"/>
<path id="Vector_2" d="M8.27275 10.0843C7.74533 10.0843 7.22976 9.92791 6.79123 9.6349C6.3527 9.34188 6.0109 8.9254 5.80907 8.43813C5.60723 7.95086 5.55443 7.41469 5.65732 6.8974C5.76021 6.38012 6.01419 5.90497 6.38713 5.53203C6.76007 5.15909 7.23522 4.90511 7.75251 4.80222C8.26979 4.69932 8.80597 4.75213 9.29324 4.95397C9.78051 5.1558 10.197 5.49759 10.49 5.93612C10.783 6.37465 10.9394 6.89023 10.9394 7.41764C10.9394 8.12489 10.6585 8.80317 10.1584 9.30326C9.65827 9.80336 8.97999 10.0843 8.27275 10.0843ZM8.27275 6.08431C8.00904 6.08431 7.75125 6.16251 7.53199 6.30902C7.31272 6.45553 7.14182 6.66377 7.04091 6.9074C6.93999 7.15103 6.91359 7.41912 6.96503 7.67776C7.01648 7.93641 7.14347 8.17398 7.32994 8.36045C7.51641 8.54692 7.75399 8.67391 8.01263 8.72536C8.27127 8.77681 8.53936 8.7504 8.78299 8.64948C9.02663 8.54857 9.23486 8.37767 9.38137 8.1584C9.52788 7.93914 9.60608 7.68135 9.60608 7.41764C9.60608 7.06402 9.4656 6.72488 9.21556 6.47484C8.96551 6.22479 8.62637 6.08431 8.27275 6.08431Z" fill="#3BB77E"/>
</g>
</g>
<defs>
<clipPath id="clip0_3374_2689">
<rect width="16" height="16" fill="white" transform="translate(0.272705 0.750977)"/>
</clipPath>
</defs>
</svg>
