<svg width="20" height="20" viewBox="0 0 20 20" fill="none" xmlns="http://www.w3.org/2000/svg">
<g id="fi-rs-search" clip-path="url(#clip0_3374_3542)">
<g id="01 align center">
<path id="Vector" d="M20.0001 18.8217L14.7817 13.6033C16.1372 11.9455 16.8037 9.83008 16.6433 7.69463C16.4828 5.55919 15.5077 3.56711 13.9197 2.13043C12.3317 0.69376 10.2522 -0.0775884 8.11143 -0.0240619C5.97064 0.0294646 3.93231 0.903771 2.41807 2.41801C0.903832 3.93225 0.0295257 5.97058 -0.0240008 8.11137C-0.0775273 10.2522 0.693821 12.3316 2.1305 13.9197C3.56717 15.5077 5.55925 16.4828 7.6947 16.6432C9.83014 16.8036 11.9456 16.1372 13.6034 14.7817L18.8217 20L20.0001 18.8217ZM8.3334 15C7.01485 15 5.72592 14.609 4.62959 13.8765C3.53327 13.1439 2.67878 12.1027 2.1742 10.8846C1.66961 9.66638 1.53759 8.32594 1.79483 7.03273C2.05206 5.73953 2.687 4.55164 3.61935 3.61929C4.5517 2.68694 5.73959 2.052 7.03279 1.79477C8.326 1.53753 9.66644 1.66955 10.8846 2.17414C12.1028 2.67872 13.144 3.5332 13.8765 4.62953C14.6091 5.72586 15.0001 7.01479 15.0001 8.33333C14.9981 10.1008 14.2951 11.7954 13.0452 13.0452C11.7954 14.295 10.1009 14.998 8.3334 15Z" fill="#7E7E7E"/>
</g>
</g>
<defs>
<clipPath id="clip0_3374_3542">
<rect width="20" height="20" fill="white"/>
</clipPath>
</defs>
</svg>
