<svg width="24" height="25" viewBox="0 0 24 25" fill="none" xmlns="http://www.w3.org/2000/svg">
<g id="fi-rs-user" clip-path="url(#clip0_3374_3552)">
<g id="01 align center">
<path id="Vector" d="M21 24.3665H19V19.3235C18.9992 18.5395 18.6874 17.7879 18.133 17.2335C17.5787 16.6791 16.827 16.3673 16.043 16.3665H7.957C7.173 16.3673 6.42134 16.6791 5.86696 17.2335C5.31259 17.7879 5.00079 18.5395 5 19.3235V24.3665H3V19.3235C3.00159 18.0093 3.52435 16.7494 4.45363 15.8201C5.3829 14.8909 6.64281 14.3681 7.957 14.3665H16.043C17.3572 14.3681 18.6171 14.8909 19.5464 15.8201C20.4756 16.7494 20.9984 18.0093 21 19.3235V24.3665Z" fill="#253D4E"/>
<path id="Vector_2" d="M12 12.3665C10.8133 12.3665 9.65328 12.0146 8.66658 11.3553C7.67989 10.696 6.91085 9.75898 6.45673 8.66262C6.0026 7.56626 5.88378 6.35986 6.11529 5.19598C6.3468 4.03209 6.91825 2.96299 7.75736 2.12388C8.59648 1.28476 9.66558 0.713318 10.8295 0.481807C11.9933 0.250296 13.1997 0.369116 14.2961 0.823242C15.3925 1.27737 16.3295 2.0464 16.9888 3.0331C17.6481 4.01979 18 5.17983 18 6.36652C17.9984 7.95733 17.3658 9.48253 16.2409 10.6074C15.116 11.7323 13.5908 12.3649 12 12.3665ZM12 2.36652C11.2089 2.36652 10.4355 2.60111 9.77772 3.04064C9.11993 3.48017 8.60723 4.10488 8.30448 4.83579C8.00173 5.56669 7.92252 6.37096 8.07686 7.14688C8.2312 7.9228 8.61217 8.63554 9.17158 9.19495C9.73099 9.75436 10.4437 10.1353 11.2196 10.2897C11.9956 10.444 12.7998 10.3648 13.5307 10.062C14.2616 9.75929 14.8864 9.2466 15.3259 8.5888C15.7654 7.931 16 7.15764 16 6.36652C16 5.30565 15.5786 4.28824 14.8284 3.53809C14.0783 2.78795 13.0609 2.36652 12 2.36652Z" fill="#253D4E"/>
</g>
</g>
<defs>
<clipPath id="clip0_3374_3552">
<rect width="24" height="24" fill="white" transform="translate(0 0.366516)"/>
</clipPath>
</defs>
</svg>
