<svg width="15" height="15" viewBox="0 0 15 15" fill="none" xmlns="http://www.w3.org/2000/svg">
<g id="fi-rs-shuffle 1" clip-path="url(#clip0_3374_3214)">
<g id="01 align center">
<path id="Vector" d="M12.6873 7.94617L11.8624 8.771L13.1994 10.1086H12.9766C11.0026 10.1086 9.74726 9.21492 8.63309 8.06225L8.45809 8.26525C8.26676 8.48692 8.06959 8.715 7.86426 8.94425C8.49845 9.67858 9.28379 10.2672 10.1666 10.67C11.0493 11.0727 12.0086 11.28 12.9789 11.2776H13.1994L11.8618 12.6152L12.6867 13.44L14.6076 11.5191C14.8263 11.3003 14.9492 11.0036 14.9492 10.6942C14.9492 10.3849 14.8263 10.0882 14.6076 9.86942L12.6873 7.94617Z" fill="#3BB77E"/>
<path id="Vector_2" d="M12.9772 4.27525H13.1995L11.8625 5.61283L12.6873 6.43767L14.6082 4.51675C14.8269 4.29797 14.9498 4.00128 14.9498 3.69192C14.9498 3.38256 14.8269 3.08587 14.6082 2.86708L12.6873 0.946167L11.8625 1.771L13.1995 3.10858H12.9766C10.0851 3.10858 8.50423 4.66608 7.06981 6.30408C5.6529 4.704 3.94956 3.10858 0.926147 3.10858V4.27525C3.53015 4.27525 4.9354 5.63792 6.29806 7.19192C4.9354 8.74592 3.53015 10.1086 0.926147 10.1086V11.2753C4.31415 11.2753 6.04548 9.27092 7.57615 7.50342C9.00765 5.84325 10.3627 4.27525 12.9772 4.27525Z" fill="#3BB77E"/>
</g>
</g>
<defs>
<clipPath id="clip0_3374_3214">
<rect width="14" height="14" fill="white" transform="translate(0.949463 0.191895)"/>
</clipPath>
</defs>
</svg>
