<svg width="17" height="17" viewBox="0 0 17 17" fill="none" xmlns="http://www.w3.org/2000/svg">
<g id="fi-rs-apps" clip-path="url(#clip0_3374_3515)">
<g id="01 align center">
<path id="Vector" d="M8.02303 7.85048H0.689697V2.51715C0.689697 1.98672 0.900411 1.47801 1.27548 1.10294C1.65056 0.727865 2.15926 0.517151 2.6897 0.517151L8.02303 0.517151V7.85048ZM2.02303 6.51715H6.6897V1.85048H2.6897C2.51289 1.85048 2.34332 1.92072 2.21829 2.04575C2.09327 2.17077 2.02303 2.34034 2.02303 2.51715V6.51715Z" fill="white"/>
<path id="Vector_2" d="M16.6897 7.85048H9.35632V0.517151H14.6897C15.2201 0.517151 15.7288 0.727865 16.1039 1.10294C16.4789 1.47801 16.6897 1.98672 16.6897 2.51715V7.85048ZM10.6897 6.51715H15.3563V2.51715C15.3563 2.34034 15.2861 2.17077 15.1611 2.04575C15.036 1.92072 14.8665 1.85048 14.6897 1.85048H10.6897V6.51715Z" fill="white"/>
<path id="Vector_3" d="M8.02303 16.5171H2.6897C2.15926 16.5171 1.65056 16.3064 1.27548 15.9314C0.900411 15.5563 0.689697 15.0476 0.689697 14.5171L0.689697 9.18381H8.02303V16.5171ZM2.02303 10.5171V14.5171C2.02303 14.694 2.09327 14.8635 2.21829 14.9885C2.34332 15.1136 2.51289 15.1838 2.6897 15.1838H6.6897V10.5171H2.02303Z" fill="white"/>
<path id="Vector_4" d="M14.6897 16.5171H9.35632V9.18381H16.6897V14.5171C16.6897 15.0476 16.4789 15.5563 16.1039 15.9314C15.7288 16.3064 15.2201 16.5171 14.6897 16.5171ZM10.6897 15.1838H14.6897C14.8665 15.1838 15.036 15.1136 15.1611 14.9885C15.2861 14.8635 15.3563 14.694 15.3563 14.5171V10.5171H10.6897V15.1838Z" fill="white"/>
</g>
</g>
<defs>
<clipPath id="clip0_3374_3515">
<rect width="16" height="16" fill="white" transform="translate(0.689697 0.517151)"/>
</clipPath>
</defs>
</svg>
