<svg width="17" height="17" viewBox="0 0 17 17" fill="none" xmlns="http://www.w3.org/2000/svg">
<g id="fi-rs-paper-plane" clip-path="url(#clip0_3374_2693)">
<g id="01 align center">
<path id="Vector" d="M1.23533 5.08044C1.0121 5.14422 0.809398 5.26518 0.647272 5.43136C0.485147 5.59754 0.369222 5.80317 0.310967 6.0279C0.252713 6.25264 0.254148 6.48869 0.315131 6.7127C0.376114 6.93671 0.494531 7.14091 0.658665 7.3051L2.93333 9.5771V13.9678H7.32866L9.61866 16.2544C9.74149 16.3785 9.88768 16.4771 10.0488 16.5443C10.2099 16.6116 10.3827 16.6463 10.5573 16.6464C10.6721 16.6462 10.7863 16.6314 10.8973 16.6024C11.122 16.5459 11.3277 16.4311 11.4939 16.2697C11.6601 16.1083 11.7809 15.906 11.844 15.6831L16.2667 0.648438L1.23533 5.08044ZM1.606 6.36244L12.958 3.01577L4.268 11.6918V9.0251L1.606 6.36244ZM10.566 15.3118L7.88133 12.6344H5.21466L13.9033 3.9531L10.566 15.3118Z" fill="#3BB77E"/>
</g>
</g>
<defs>
<clipPath id="clip0_3374_2693">
<rect width="16" height="16" fill="white" transform="translate(0.272705 0.634277)"/>
</clipPath>
</defs>
</svg>
