<svg width="16" height="17" viewBox="0 0 16 17" fill="none" xmlns="http://www.w3.org/2000/svg">
<g id="fi-rs-time-fast" clip-path="url(#clip0_3374_2687)">
<path id="Vector" d="M6.66667 16.8696H0V15.5363H6.66667V16.8696ZM5.33333 12.8696H0V14.203H5.33333V12.8696ZM4 10.203H0V11.5363H4V10.203ZM8 0.869629C5.87897 0.871923 3.84547 1.71551 2.34568 3.21531C0.845885 4.7151 0.00229405 6.7486 0 8.86963H1.33333C1.33333 7.55109 1.72433 6.26216 2.45687 5.16583C3.18941 4.0695 4.2306 3.21502 5.44878 2.71043C6.66695 2.20585 8.0074 2.07383 9.3006 2.33106C10.5938 2.5883 11.7817 3.22323 12.714 4.15558C13.6464 5.08793 14.2813 6.27582 14.5386 7.56903C14.7958 8.86223 14.6638 10.2027 14.1592 11.4209C13.6546 12.639 12.8001 13.6802 11.7038 14.4128C10.6075 15.1453 9.31854 15.5363 8 15.5363V16.8696C10.1217 16.8696 12.1566 16.0268 13.6569 14.5265C15.1571 13.0262 16 10.9914 16 8.86963C16 6.7479 15.1571 4.71307 13.6569 3.21277C12.1566 1.71248 10.1217 0.869629 8 0.869629V0.869629ZM7.33333 5.5363V9.14563L9.52867 11.341L10.4713 10.3983L8.66667 8.59363V5.5363H7.33333Z" fill="#3BB77E"/>
</g>
<defs>
<clipPath id="clip0_3374_2687">
<rect width="16" height="16" fill="white" transform="translate(0 0.869629)"/>
</clipPath>
</defs>
</svg>
