<svg width="20" height="21" viewBox="0 0 20 21" fill="none" xmlns="http://www.w3.org/2000/svg">
<g id="fi-rs-flame 1" clip-path="url(#clip0_3374_3528)">
<g id="01 align center">
<path id="Vector" d="M13.6667 3.91049C12.6667 3.06299 11.6367 2.18382 10.5942 1.14466L10.0001 0.554657L9.41675 1.14549C7.54008 3.02716 6.65342 5.91632 6.26842 7.64966C5.97372 7.19291 5.75505 6.6914 5.62092 6.16466L5.26842 4.80382L4.24342 5.76716C2.44758 7.45299 1.25008 9.12549 1.25008 11.8038C1.23331 13.7357 1.86252 15.6178 3.03776 17.1512C4.213 18.6845 5.8669 19.7813 7.73675 20.2672C8.30014 20.4042 8.87517 20.4879 9.45425 20.5172C9.63531 20.5401 9.81758 20.552 10.0001 20.553C10.0959 20.553 10.1892 20.5447 10.2826 20.5388C12.5527 20.4705 14.7068 19.5203 16.2878 17.8897C17.8687 16.2591 18.752 14.0766 18.7501 11.8055C18.7501 8.22716 16.3942 6.22716 13.6667 3.91049ZM10.1667 18.8722C10.0834 18.8722 10.0001 18.8805 9.91175 18.8797C9.16168 18.8567 8.4499 18.5431 7.9268 18.0051C7.40369 17.4671 7.11023 16.7467 7.10842 15.9963C7.10842 14.9397 7.67508 14.413 8.95758 13.3213C9.28092 13.0463 9.63258 12.7472 10.0026 12.4047C10.3267 12.6988 10.6417 12.9655 10.9326 13.213C12.2209 14.3063 12.8934 14.9272 12.8934 15.9938C12.892 16.7309 12.6089 17.4396 12.1019 17.9747C11.595 18.5098 10.9027 18.8309 10.1667 18.8722ZM14.3501 17.3963L14.3334 17.408C14.483 16.9523 14.5595 16.4759 14.5601 15.9963C14.5601 14.1088 13.3217 13.0572 12.0117 11.9447C11.5476 11.5513 11.0684 11.1447 10.5901 10.6663L10.0001 10.0772L9.41092 10.6663C8.87092 11.2055 8.34258 11.6555 7.87675 12.0522C6.57008 13.1638 5.44092 14.1247 5.44092 15.9963C5.44269 16.4965 5.52717 16.9929 5.69092 17.4655C4.82346 16.7994 4.12172 15.9418 3.64049 14.9597C3.15926 13.9776 2.91157 12.8975 2.91675 11.8038C2.90304 10.3415 3.46903 8.93326 4.49092 7.88716C4.66693 8.24426 4.8756 8.58432 5.11425 8.90299C5.28855 9.13819 5.52787 9.31725 5.8027 9.41809C6.07753 9.51893 6.37586 9.53714 6.66092 9.47049C6.95091 9.40593 7.21616 9.25921 7.42498 9.04789C7.63379 8.83656 7.77733 8.56956 7.83842 8.27882C8.18735 6.36353 8.94202 4.54505 10.0517 2.94549C10.9309 3.77882 11.8017 4.51632 12.5876 5.18382C15.1976 7.40049 17.0876 9.00216 17.0876 11.8088C17.0896 12.8877 16.8438 13.9526 16.369 14.9214C15.8942 15.8902 15.2032 16.7369 14.3492 17.3963H14.3501Z" fill="#3BB77E"/>
</g>
</g>
<defs>
<clipPath id="clip0_3374_3528">
<rect width="20" height="20" fill="white" transform="translate(0 0.517151)"/>
</clipPath>
</defs>
</svg>
