<svg width="15" height="15" viewBox="0 0 15 15" fill="none" xmlns="http://www.w3.org/2000/svg">
<g id="fi-rs-eye 1" clip-path="url(#clip0_3374_3218)">
<g id="01 align center">
<path id="Vector" d="M14.8451 6.71414C14.3329 5.59414 12.3245 1.94189 7.94951 1.94189C3.57451 1.94189 1.56609 5.59414 1.05393 6.71414C0.985174 6.86424 0.949585 7.02739 0.949585 7.19248C0.949585 7.35757 0.985174 7.52072 1.05393 7.67081C1.56609 8.78964 3.57451 12.4419 7.94951 12.4419C12.3245 12.4419 14.3329 8.78964 14.8451 7.66964C14.9137 7.51972 14.9492 7.35677 14.9492 7.19189C14.9492 7.02701 14.9137 6.86407 14.8451 6.71414ZM7.94951 11.2752C4.27043 11.2752 2.55368 8.14506 2.11618 7.19831C2.55368 6.23873 4.27043 3.10856 7.94951 3.10856C11.6198 3.10856 13.3372 6.22531 13.7828 7.19189C13.3372 8.15848 11.6198 11.2752 7.94951 11.2752Z" fill="#3BB77E"/>
<path id="Vector_2" d="M7.9495 4.27527C7.37264 4.27527 6.80874 4.44633 6.32909 4.76682C5.84945 5.0873 5.47561 5.54282 5.25486 6.07578C5.0341 6.60873 4.97634 7.19517 5.08888 7.76095C5.20142 8.32673 5.47921 8.84643 5.88711 9.25433C6.29501 9.66223 6.81471 9.94002 7.38049 10.0526C7.94627 10.1651 8.53271 10.1073 9.06566 9.88659C9.59862 9.66583 10.0541 9.29199 10.3746 8.81235C10.6951 8.33271 10.8662 7.7688 10.8662 7.19194C10.8652 6.41867 10.5577 5.67734 10.0109 5.13056C9.4641 4.58378 8.72277 4.27619 7.9495 4.27527ZM7.9495 8.94194C7.60339 8.94194 7.26504 8.8393 6.97726 8.64701C6.68947 8.45472 6.46517 8.1814 6.33272 7.86163C6.20026 7.54186 6.16561 7.18999 6.23313 6.85053C6.30065 6.51106 6.46733 6.19924 6.71207 5.9545C6.95681 5.70976 7.26863 5.54309 7.6081 5.47556C7.94756 5.40804 8.29943 5.44269 8.6192 5.57515C8.93897 5.7076 9.21228 5.9319 9.40458 6.21969C9.59687 6.50747 9.6995 6.84582 9.6995 7.19194C9.6995 7.65606 9.51513 8.10118 9.18694 8.42937C8.85875 8.75756 8.41363 8.94194 7.9495 8.94194Z" fill="#3BB77E"/>
</g>
</g>
<defs>
<clipPath id="clip0_3374_3218">
<rect width="14" height="14" fill="white" transform="translate(0.949463 0.191895)"/>
</clipPath>
</defs>
</svg>
