<?xml version="1.0" encoding="utf-8"?>
<svg width="25.443039px" height="22.05066px" viewBox="0 0 25.443039 22.05066" version="1.1" xmlns:xlink="http://www.w3.org/1999/xlink" xmlns="http://www.w3.org/2000/svg">
  <g id="Group-16">
    <path d="M20.426 2.23114C20.5332 1.80225 20.7476 0.88014 20.7476 0.622805L21.391 1.42698L22.5168 1.74864L24.1252 1.74864L24.9293 2.87448L24.9293 4.64367L19.9435 4.64367L18.8176 4.16116L19.461 3.67865L20.426 3.19615L20.426 2.23114L20.426 2.23114ZM10.9367 7.69952C8.87803 7.69952 5.57557 9.73674 4.18167 10.7554L4.66418 11.3987L5.46834 11.8812L6.43335 13.007L7.39836 13.972L8.20253 15.5804L9.4892 16.5454C10.4006 16.6526 12.2556 16.8671 12.3842 16.8671C12.5129 16.8671 14.4751 16.6526 15.4401 16.5454L17.2093 16.0629C17.3701 15.7412 17.7561 15.0657 18.0134 14.9371C18.2708 14.8084 18.3351 14.2401 18.3351 13.972L19.461 13.007C19.6754 12.739 19.9756 12.2029 19.461 12.2029C18.9463 12.2029 16.9948 9.20063 16.0834 7.69952L10.9367 7.69952L10.9367 7.69952Z" id="Vector-11" fill="#FDC040" fill-rule="evenodd" stroke="none" />
    <path d="M20.7785 8.42865e-07L19.3368 8.42865e-07C18.7605 -0.000412423 18.1942 0.151153 17.6952 0.439375C17.6244 0.458631 17.56 0.496315 17.5082 0.548286L17.484 0.572512C17.1374 0.810419 16.8397 1.11272 16.6071 1.46306C16.4862 1.64444 16.5224 1.88794 16.691 2.02604C16.8595 2.16436 17.1055 2.15235 17.2598 1.99809L17.8915 1.36636L19.9271 2.38404L19.9271 2.74329L18.5733 3.64688C18.1611 3.9204 17.613 3.86636 17.2623 3.51705C17.1558 3.4069 16.9981 3.36259 16.8498 3.40152C16.7015 3.44024 16.5858 3.55598 16.5471 3.70423C16.5082 3.85248 16.5525 4.01026 16.6626 4.11669C17.2838 4.74117 18.129 5.0913 19.0098 5.08861L21.2025 5.08861L21.2025 5.93671L20.3544 5.93671C19.1798 5.94044 18.1176 6.63656 17.6455 7.71222C17.2728 7.565 16.8937 7.43787 16.5096 7.32544C17.0165 6.89911 17.1113 6.15515 16.7278 5.61536C16.3444 5.07536 15.6108 4.91986 15.0412 5.25798C14.4718 5.5961 14.257 6.31479 14.5475 6.90987C13.3338 6.73926 12.1018 6.74319 10.8893 6.92188C10.9775 6.74796 11.0241 6.55581 11.0253 6.36076C11.029 5.76651 10.6207 5.24887 10.0418 5.11387C9.46287 4.97908 8.868 5.26295 8.60856 5.79778C8.34912 6.3326 8.49468 6.97551 8.9589 7.34676C8.5717 7.46333 8.19134 7.60103 7.81388 7.75342C7.35214 6.65602 6.27918 5.94085 5.08861 5.93671L4.24051 5.93671L4.24051 5.08861L6.43323 5.08861C7.31425 5.0913 8.15966 4.74096 8.78083 4.11627C8.94151 3.9498 8.93923 3.68539 8.77565 3.52182C8.61208 3.35824 8.34767 3.35596 8.1812 3.51664C7.83044 3.86594 7.28216 3.9204 6.8697 3.64688L5.51266 2.74142L5.51266 2.38239L7.54802 1.3645L8.17995 1.99643C8.33421 2.15048 8.57999 2.1627 8.74874 2.02439C8.91728 1.88628 8.95352 1.64258 8.83259 1.46119C8.60007 1.11106 8.30232 0.808763 7.95571 0.570855L7.93149 0.54663C7.87972 0.494659 7.81512 0.456974 7.74451 0.437718C7.24613 0.150739 6.68128 -0.000205367 6.10629 8.42865e-07L4.66456 8.42865e-07C2.08961 0.00310753 0.00310584 2.08961 0 4.66456L0 6.36076C0.0018635 7.9994 1.32971 9.32725 2.96835 9.32912L4.95112 9.32912L3.5802 10.2489C3.46467 10.3265 3.39468 10.4557 3.39261 10.5948C3.39054 10.734 3.4568 10.8651 3.57006 10.946L3.68083 11.0253L2.29584 11.0253L0.723868 9.45335L0.124234 10.053L1.82044 11.7492C1.89995 11.8287 2.00782 11.8734 2.12025 11.8734L4.86768 11.8734L5.37062 12.2327C5.57767 12.3826 5.77479 12.5457 5.96052 12.7215L4.66456 12.7215C4.619 12.7215 4.57387 12.7288 4.53059 12.7431L2.23476 13.5065L0.723868 11.9977L0.124234 12.5973L1.82044 14.2935C1.89995 14.373 2.00782 14.4177 2.12025 14.4177C2.16581 14.4177 2.21094 14.4103 2.25422 14.3962L4.7333 13.5696L6.71524 13.5696C6.85956 13.7655 6.99187 13.9701 7.11134 14.1819L7.24199 14.4177L5.93671 14.4177C5.89116 14.4177 5.84602 14.425 5.80274 14.4393L3.25844 15.2874C3.14394 15.3261 3.05138 15.4116 3.00397 15.5228L1.73182 18.4911L2.51117 18.8253L3.70837 16.0321L6.00545 15.2658L7.71304 15.2658L7.80767 15.4354C7.94784 15.6857 8.12363 15.9143 8.32966 16.1139L6.36076 16.1139C5.19027 16.1154 4.24196 17.0637 4.24051 18.2342L4.24051 19.5063C4.24196 20.911 5.38014 22.0492 6.78481 22.0506C7.72153 22.0506 8.48101 21.2912 8.48101 20.3544C8.48101 19.4177 7.72153 18.6582 6.78481 18.6582L8.05696 18.6582C9.07009 18.6568 9.94076 17.9387 10.1348 16.9442C10.223 16.9519 10.3112 16.962 10.4006 16.962L15.1987 16.962C15.2358 16.962 15.2714 16.9548 15.3079 16.9535C15.5068 17.9437 16.3761 18.6566 17.3861 18.6582L18.6582 18.6582C17.7215 18.6582 16.962 19.4177 16.962 20.3544C16.962 21.2912 17.7215 22.0506 18.6582 22.0506C20.0629 22.0492 21.2011 20.911 21.2025 19.5063L21.2025 18.2342C21.2011 17.0637 20.2528 16.1154 19.0823 16.1139L17.2683 16.1139C17.518 15.8692 17.7221 15.582 17.8712 15.2658L19.4376 15.2658L21.7359 16.0321L22.9331 18.8253L23.7125 18.4911L22.4403 15.5228C22.3929 15.4116 22.3003 15.3261 22.1858 15.2874L19.6415 14.4393C19.5981 14.4248 19.5523 14.4175 19.5063 14.4177L18.2549 14.4177C18.4054 14.1208 18.5808 13.8369 18.7792 13.5696L20.7097 13.5696L23.1888 14.3962C23.2321 14.4103 23.2772 14.4177 23.3228 14.4177C23.4352 14.4177 23.5431 14.373 23.6226 14.2935L25.3188 12.5973L24.7192 11.9977L23.2083 13.5085L20.9124 12.7453C20.8694 12.7302 20.824 12.7221 20.7785 12.7215L19.5537 12.7215C19.6896 12.5985 19.8291 12.4795 19.9778 12.3687L20.6369 11.8734L23.3228 11.8734C23.4352 11.8734 23.5431 11.8287 23.6226 11.7492L25.3188 10.053L24.7192 9.45335L23.1472 11.0253L21.7678 11.0253L21.8811 10.9404C21.9889 10.8597 22.0521 10.7323 22.0508 10.5973C22.0496 10.4625 21.9844 10.3362 21.8751 10.2573L20.5907 9.32912L22.4747 9.32912C24.1133 9.32725 25.4412 7.9994 25.443 6.36076L25.443 4.66456C25.4399 2.08961 23.3534 0.00310753 20.7785 8.42865e-07L20.7785 8.42865e-07ZM0.871499 4.24051C1.08974 2.30992 2.72175 0.850381 4.66456 0.848103L4.66456 2.96836C4.66456 3.11019 4.73537 3.2425 4.85319 3.32118L6.23363 4.24051L0.871499 4.24051L0.871499 4.24051ZM5.51266 0.848103L6.10629 0.848103C6.26883 0.848103 6.43095 0.875666 6.59018 0.930435L5.51266 1.8481L5.51266 0.848103L5.51266 0.848103ZM18.8549 0.930435C19.0144 0.875666 19.1763 0.848103 19.3388 0.848103L19.9304 0.848103L19.9304 1.8481L18.8549 0.930435L18.8549 0.930435ZM24.5715 4.24051L19.2094 4.24051L20.5884 3.32118C20.7068 3.2427 20.7783 3.1104 20.7785 2.96836L20.7785 0.848103C22.7213 0.850381 24.3533 2.30992 24.5715 4.24051L24.5715 4.24051ZM3.39241 5.08861L3.39241 8.48101L2.96835 8.48101C1.79787 8.47957 0.849551 7.53125 0.848101 6.36076L0.848101 5.08861L3.39241 5.08861L3.39241 5.08861ZM24.5949 6.36076C24.5935 7.53125 23.6452 8.47957 22.4747 8.48101L22.0506 8.48101L22.0506 5.08861L24.5949 5.08861L24.5949 6.36076L24.5949 6.36076ZM9.82913 5.93671C10.1053 5.93671 10.3291 6.16059 10.3291 6.43671C10.3291 6.71283 10.1053 6.93671 9.82913 6.93671C9.55299 6.93671 9.32911 6.71283 9.32911 6.43671C9.32911 6.16059 9.55299 5.93671 9.82913 5.93671L9.82913 5.93671ZM15.7659 5.93671C16.042 5.93671 16.2658 6.16059 16.2658 6.43671C16.2658 6.71283 16.042 6.93671 15.7659 6.93671C15.4897 6.93671 15.2658 6.71283 15.2658 6.43671C15.2658 6.16059 15.4897 5.93671 15.7659 5.93671L15.7659 5.93671ZM4.24051 8.48101L4.24051 6.78481L5.08861 6.78481C5.94354 6.78709 6.71358 7.30245 7.04135 8.09216C6.78854 8.2135 6.53966 8.34311 6.29471 8.48101L4.24051 8.48101L4.24051 8.48101ZM21.2025 8.48101L19.2519 8.48101C18.9788 8.328 18.7017 8.18492 18.4203 8.05137C18.7578 7.28402 19.5161 6.7875 20.3544 6.78481L21.2025 6.78481L21.2025 8.48101L21.2025 8.48101ZM20.9112 10.6077L19.4695 11.6902C18.4325 12.4673 17.6399 13.5249 17.1854 14.7382C16.8728 15.5646 16.0822 16.1119 15.1987 16.1139L10.4019 16.1139C9.63204 16.1137 8.92266 15.6963 8.54893 15.0234L7.8526 13.7698C7.36208 12.8897 6.68273 12.1291 5.86341 11.5428L4.56103 10.6122L5.86383 9.73826C10.1789 6.84279 15.8408 6.94176 20.0521 9.98631L20.9112 10.6077L20.9112 10.6077ZM8.05696 17.962L6.78481 17.962L6.78481 16.962L9.25665 16.962C9.0763 17.5609 8.59593 17.9613 8.05696 17.962L8.05696 17.962ZM18.6582 16.962L18.6582 17.962L17.3861 17.962C16.8471 17.9613 16.3667 17.5609 16.1864 16.962L18.6582 16.962L18.6582 16.962ZM5.08861 18.2342C5.08934 17.6952 5.48973 17.2148 6.08861 17.0345L6.08861 18.6582L5.08861 18.6582L5.08861 18.2342L5.08861 18.2342ZM19.5063 18.6582L19.5063 17.0345C20.1052 17.2148 20.5056 17.6952 20.5063 18.2342L20.5063 18.6582L19.5063 18.6582L19.5063 18.6582ZM7.63291 20.3544C7.63291 20.8228 7.25317 21.2025 6.78481 21.2025C5.84809 21.2025 5.08861 20.4431 5.08861 19.5063L6.78481 19.5063C7.25317 19.5063 7.63291 19.8861 7.63291 20.3544L7.63291 20.3544ZM20.3544 19.5063C20.3544 20.4431 19.5949 21.2025 18.6582 21.2025C18.1899 21.2025 17.8101 20.8228 17.8101 20.3544C17.8101 19.8861 18.1899 19.5063 18.6582 19.5063L20.3544 19.5063L20.3544 19.5063Z" id="Vector" fill="#3BB77E" fill-rule="evenodd" stroke="none" />
    <path d="M10.477 10.3014L9.8774 10.9011L10.8497 11.8734L9.8774 12.8458L10.477 13.4454L11.7492 12.1732C11.9146 12.0076 11.9146 11.7392 11.7492 11.5736L10.477 10.3014L10.477 10.3014Z" id="Vector" fill="#3BB77E" fill-rule="evenodd" stroke="none" />
    <path d="M14.9661 10.3014L13.6939 11.5736C13.5285 11.7392 13.5285 12.0076 13.6939 12.1732L14.9661 13.4454L15.5657 12.8458L14.5934 11.8734L15.5657 10.9011L14.9661 10.3014L14.9661 10.3014Z" id="Vector" fill="#3BB77E" fill-rule="evenodd" stroke="none" />
  </g>
</svg>