<?xml version="1.0" encoding="utf-8"?>
<svg width="29.99997px" height="29.832703px" viewBox="0 0 29.99997 29.832703" version="1.1" xmlns:xlink="http://www.w3.org/1999/xlink" xmlns="http://www.w3.org/2000/svg">
  <g id="Group">
    <path d="M17.625 6.47882L18.375 5.54132L20.8125 3.85382L23.625 2.72882C24.5 2.47882 26.475 2.09132 27.375 2.54132C28.5 3.10382 28.6875 3.29132 29.625 4.97882C29.5625 6.29132 29.325 9.02882 28.875 9.47882L27.9375 11.1663L27.375 11.5413L19.125 11.5413L19.125 10.2288C19.125 10.0413 18.9375 8.72882 18.9375 8.54132L18.9375 7.41632L18.75 6.66632L18.375 6.47882L17.625 6.47882L17.625 6.47882ZM3.75 11.5413L3.375 9.47882L3.375 7.60382C3.4375 7.16632 3.6 6.29132 3.75 6.29132C3.9 6.29132 4.875 5.91632 5.625 5.72882L7.125 5.54132C7.5 5.54132 7.6875 5.54132 9.5625 5.16632C9.70959 5.13691 10.6875 4.97882 11.0625 4.97882L10.5 4.22882L11.25 4.97882L12 5.72882L12.1875 6.29132C11.9375 6.35382 11.3625 6.47882 11.0625 6.47882L9.5625 6.47882L8.8125 6.85382L8.8125 7.41632C8.8125 7.56632 8.6875 8.85382 8.625 9.47882L8.4375 11.3538L7.6875 11.5413L3.75 11.5413L3.75 11.5413Z" id="Vector-2" fill="#FDC040" fill-rule="evenodd" stroke="none" />
    <path d="M21.5386 5.14854C21.2778 5.40941 21.1341 5.75624 21.1341 6.12516C21.1341 6.49408 21.2778 6.84091 21.5386 7.10178L24.7313 10.2945C24.9922 10.5554 25.339 10.699 25.7079 10.699C26.0768 10.699 26.4236 10.5553 26.6844 10.2945C26.9453 10.0336 27.089 9.6868 27.089 9.31788C27.089 8.94896 26.9453 8.60213 26.6845 8.34126L23.4918 5.14848C22.9533 4.61004 22.077 4.61016 21.5386 5.14854L21.5386 5.14854ZM26.063 8.96279C26.1578 9.0576 26.2101 9.18375 26.2101 9.31787C26.2101 9.45201 26.1578 9.5781 26.0629 9.67297C25.9681 9.76784 25.842 9.82005 25.7079 9.82005C25.5737 9.82005 25.4476 9.76784 25.3528 9.67297L22.1601 6.4802C22.0652 6.38539 22.013 6.25923 22.013 6.12511C22.013 5.99098 22.0652 5.86488 22.1601 5.77001C22.258 5.6721 22.3865 5.62317 22.5152 5.62317C22.6438 5.62317 22.7724 5.6721 22.8703 5.77001L26.063 8.96279L26.063 8.96279Z" id="Vector" fill="#3BB77E" fill-rule="evenodd" stroke="none" />
    <path d="M29.8932 13.2391C29.7094 12.3313 29.054 11.6031 28.2156 11.294C30.2947 7.82543 30.583 4.57722 28.9196 2.91386C28.19 2.18428 27.1333 1.81073 25.8615 1.83417C25.6188 1.83862 25.4257 2.03896 25.4301 2.28161C25.4345 2.52156 25.6304 2.71305 25.8694 2.71305L25.8776 2.71299C26.9181 2.69371 27.7335 2.97064 28.2982 3.53533C29.1714 4.40858 29.195 5.73537 29.061 6.69464C28.8715 8.05126 28.2578 9.58114 27.2843 11.1322C24.7496 11.0838 22.204 11.0504 19.6543 11.0321C19.6377 9.53537 19.5451 8.02038 19.3768 6.52167C19.3537 6.31705 19.1918 6.15579 18.9871 6.13376C18.856 6.1197 18.7247 6.10716 18.5936 6.09415C20.4488 4.52536 22.4322 3.4203 24.2579 2.94925C24.493 2.8886 24.6343 2.64895 24.5736 2.41392C24.5131 2.17889 24.2732 2.0375 24.0383 2.0982C23.3387 2.27874 22.6191 2.545 21.8938 2.88819C22.035 2.27393 22.1024 1.53756 21.8327 0.988103C21.6703 0.656978 21.4013 0.431207 21.055 0.335169C20.5419 0.193015 19.7448 0.267666 18.8593 1.43109C18.8164 1.4874 18.775 1.54412 18.7351 1.60055C18.7303 1.58385 18.7255 1.56721 18.7204 1.55051C18.5464 0.971462 18.0915 0 16.9987 0C16.6191 0 16.2882 0.151295 16.0416 0.437477C15.7196 0.811143 15.5787 1.39154 15.5281 1.96999C15.1436 1.46419 14.6777 1.05766 14.1737 1.05766C13.8464 1.05766 13.5478 1.22442 13.3332 1.52724C12.7677 2.32497 12.7595 4.05378 13.2848 5.8651C13.1532 5.86674 13.0218 5.86973 12.8903 5.87248C12.0293 4.8678 10.9885 4.17637 10.5332 3.89968L10.5332 2.93636C10.7396 2.90021 10.8964 2.72061 10.8964 2.50392L10.8964 1.26315C10.8964 0.594456 10.3524 0.0504511 9.68372 0.0504511L6.95092 0.0504511C6.28222 0.0504511 5.73822 0.594456 5.73822 1.26315L5.73822 2.50392C5.73822 2.72061 5.8952 2.90021 6.10151 2.93636L6.10116 3.8995C5.50782 4.25986 3.9228 5.32203 3.03572 6.86434C2.85477 7.17759 2.77098 7.53866 2.79366 7.90928C2.8362 8.58471 2.94185 9.89785 3.17148 11.1241C2.99153 11.1274 2.81141 11.1304 2.63158 11.1338C1.41091 11.1568 0.349034 12.0423 0.106798 13.2389C-0.0355897 13.94 -0.0355897 14.651 0.10674 15.3518C0.28452 16.2313 0.90757 16.9572 1.73049 17.2777C1.77877 18.1722 1.86145 19.4445 1.99681 20.8904C1.63404 21.9179 1.27872 22.9457 0.934056 23.9714C0.637502 24.855 1.03455 25.8356 1.85817 26.2527C2.17154 26.4108 2.50103 26.5336 2.83825 26.6189C3.15344 27.5127 3.71596 28.2837 4.47817 28.86C5.31984 29.4964 6.32277 29.8327 7.37855 29.8327L22.6215 29.8327C23.6773 29.8327 24.6802 29.4964 25.5219 28.86C26.2842 28.2837 26.8467 27.5125 27.1619 26.6187C27.5007 26.5326 27.8301 26.4097 28.1421 26.252C28.9659 25.8357 29.363 24.855 29.066 23.9708C28.721 22.9445 28.3658 21.9167 28.0033 20.89C28.1386 19.4441 28.2213 18.1719 28.2696 17.2774C29.0934 16.9562 29.7157 16.2307 29.8932 15.3522C30.0355 14.651 30.0355 13.94 29.8932 13.2391L29.8932 13.2391ZM14.0502 2.03551C14.0822 1.99039 14.1296 1.9366 14.1737 1.9366C14.4902 1.9366 15.1538 2.83932 15.6258 3.91151C15.7035 4.10148 15.9037 4.21316 16.1076 4.17783C16.3182 4.14127 16.4719 3.95856 16.4719 3.74481C16.4719 3.71809 16.4694 3.69131 16.4645 3.66494C16.2448 2.17994 16.489 1.26462 16.7074 1.01119C16.7874 0.918432 16.8745 0.87888 16.9987 0.87888C18.0118 0.87888 18.0458 2.8947 18.0458 2.9145C18.0458 3.12223 18.1913 3.30141 18.3945 3.3443C18.5981 3.38725 18.8034 3.28184 18.8874 3.09181C19.2016 2.3811 20.0865 0.979021 20.8201 1.18223C20.9245 1.21118 20.9913 1.26895 21.0435 1.37536C21.2305 1.75635 21.1304 2.59902 20.803 3.46003C19.6407 4.1282 18.4815 4.98288 17.3823 5.98997C16.3246 5.91245 15.2639 5.87014 14.2028 5.86311C13.5905 3.94339 13.7339 2.48177 14.0502 2.03551L14.0502 2.03551ZM6.95092 0.929331L9.68372 0.929331C9.86777 0.929331 10.0175 1.07904 10.0175 1.26309L10.0175 2.06428L6.61716 2.06428L6.61716 1.26315C6.61716 1.0791 6.76687 0.929331 6.95092 0.929331L6.95092 0.929331ZM9.65436 3.94339L6.98022 3.94339L6.98051 2.94339L9.65436 2.94339L9.65436 3.94339L9.65436 3.94339ZM4.038 10.9762C3.81516 9.79284 3.71232 8.51211 3.6709 7.85484C3.65888 7.65784 3.70242 7.46735 3.79723 7.30322C4.63544 5.84582 6.2555 4.82854 6.65806 4.59122L9.97635 4.59122C10.2332 4.7424 10.9869 5.2117 11.7166 5.9111C10.7363 5.95551 9.75767 6.02911 8.78298 6.13382C8.57819 6.15579 8.41617 6.31705 8.3932 6.52173C8.22415 8.02741 8.13151 9.5492 8.11551 11.0524C6.76617 11.0668 5.4184 11.0849 4.07351 11.1077C4.05909 11.0648 4.04655 11.0211 4.038 10.9762L4.038 10.9762ZM18.5413 6.97139C18.6819 8.32086 18.7601 9.68145 18.7754 11.027C15.5157 11.0081 12.2507 11.0134 8.99428 11.0435C9.00922 9.69276 9.08744 8.3266 9.2286 6.97133C12.3201 6.66288 15.4496 6.66288 18.5413 6.97139L18.5413 6.97139ZM29.0317 15.1776C28.8988 15.8352 28.392 16.3646 27.738 16.5269C27.6147 16.5583 27.4844 16.5757 27.3519 16.5784L27.3373 16.5787C27.0369 16.5843 26.7366 16.5896 26.4362 16.5947C26.0952 15.6899 25.7492 14.7886 25.3979 13.8934C25.0573 13.0251 24.1223 12.5291 23.2239 12.7397C22.8546 12.8262 22.4957 12.9568 22.1573 13.1279C21.3335 13.5443 20.9363 14.525 21.2334 15.4091C21.3737 15.8265 21.5155 16.2441 21.6587 16.6618C17.2364 16.7077 12.7631 16.7077 8.34076 16.6618C8.48408 16.244 8.62635 15.8264 8.76634 15.4097C9.06371 14.5253 8.66649 13.5445 7.84293 13.1285C7.50588 12.9578 7.14698 12.8271 6.77595 12.7399C5.8775 12.5295 4.94284 13.0256 4.60187 13.8939C4.25047 14.7896 3.90458 15.6906 3.56384 16.5947C3.26324 16.5896 2.96259 16.5843 2.66199 16.5788L2.64904 16.5785C2.51538 16.5757 2.38518 16.5584 2.25932 16.5263C1.60785 16.3647 1.101 15.8353 0.968041 15.1773C0.849267 14.5922 0.849267 13.9989 0.9681 13.4136C1.12936 12.6172 1.83591 12.028 2.64822 12.0126C10.8442 11.8553 19.1556 11.8553 27.3517 12.0126C28.1639 12.028 28.8704 12.6172 29.0317 13.4139C29.1506 13.9989 29.1506 14.5921 29.0317 15.1776L29.0317 15.1776ZM27.7456 25.4675C27.4692 25.6072 27.1763 25.7138 26.8749 25.7844C26.3987 25.8961 25.9019 25.63 25.7195 25.1654C24.425 21.8665 23.1961 18.4898 22.0666 15.1291C21.9076 14.6561 22.1171 14.133 22.5538 13.9123C22.83 13.7727 23.123 13.666 23.4244 13.5954C23.4975 13.5783 23.571 13.5701 23.6438 13.5701C24.0457 13.5701 24.4254 13.8211 24.5797 14.2144C25.8742 17.5134 27.1032 20.8901 28.2327 24.2508C28.3916 24.7238 28.1822 25.2469 27.7456 25.4675L27.7456 25.4675ZM22.6215 28.9537L7.37849 28.9537C5.82658 28.9537 4.42128 28.0222 3.79078 26.6325C4.36813 26.4886 4.86877 26.073 5.09859 25.4869C5.35184 24.8414 5.58194 24.2466 5.80209 23.6688C5.88852 23.442 5.77472 23.1881 5.5479 23.1017C5.32107 23.0153 5.06718 23.129 4.98075 23.3559C4.7616 23.931 4.53249 24.5231 4.28029 25.1661C4.09818 25.6306 3.60175 25.8966 3.12443 25.7845C2.82454 25.7146 2.53173 25.6081 2.25469 25.4682C1.81809 25.2472 1.60855 24.7238 1.76723 24.2512C2.89397 20.8982 4.12302 17.5215 5.42016 14.215C5.60257 13.7504 6.09935 13.4842 6.57538 13.5957C6.8782 13.6667 7.17107 13.7734 7.44629 13.9128C7.88301 14.1334 8.09237 14.6565 7.93334 15.1296C7.19597 17.3237 6.41102 19.5392 5.60017 21.7147C5.51538 21.9421 5.63105 22.1951 5.85846 22.2799C6.08593 22.3648 6.33894 22.249 6.42373 22.0216C6.97629 20.5391 7.51643 19.038 8.03829 17.5378C10.3491 17.5628 12.6743 17.5758 14.9999 17.5758C17.3258 17.5758 19.6513 17.5629 21.9623 17.5378C22.89 20.2051 23.8747 22.8702 24.9013 25.4865C25.1312 26.0726 25.6319 26.4882 26.2093 26.6322C25.5789 28.022 24.1734 28.9537 22.6215 28.9537L22.6215 28.9537ZM2.62068 17.4567C2.62667 17.4568 2.63257 17.4572 2.63856 17.4572L2.66137 17.4575C2.98112 17.4612 3.30086 17.4644 3.62068 17.4679C3.33488 17.9414 3.05108 18.4153 2.77062 18.89C2.70776 18.3546 2.65871 17.8716 2.62068 17.4567L2.62068 17.4567ZM26.7633 17.4679C27.0827 17.4644 27.4022 17.4612 27.7216 17.4575L27.7471 17.4572C27.7524 17.4571 27.7579 17.4568 27.7633 17.4567C27.7252 17.8715 27.6761 18.3543 27.6133 18.8894C27.3327 18.4148 27.049 17.9411 26.7633 17.4679L26.7633 17.4679Z" id="Vector" fill="#3BB77E" fill-rule="evenodd" stroke="none" />
    <path d="M9.19112 19.0802L9.16147 19.0802C8.15502 19.0826 7.34282 19.877 7.31247 20.8887C7.27678 22.0802 7.27678 23.2886 7.31247 24.4802C7.34282 25.4918 8.15496 26.2862 9.16182 26.2887L9.19112 26.2887C10.1976 26.2862 11.0098 25.4919 11.0401 24.4802C11.0758 23.2886 11.0758 22.0802 11.0401 20.8887C11.0097 19.8769 10.1976 19.0826 9.19112 19.0802L9.19112 19.0802ZM10.1615 24.4538C10.1458 24.9796 9.70946 25.4084 9.18936 25.4097L9.16358 25.4097C8.64307 25.4084 8.20676 24.9796 8.191 24.4538C8.15578 23.2797 8.15578 22.0891 8.191 20.915C8.20676 20.3892 8.64307 19.9604 9.16387 19.9591L9.18895 19.9591C9.70946 19.9604 10.1458 20.3892 10.1615 20.915C10.1967 22.0891 10.1967 23.2797 10.1615 24.4538L10.1615 24.4538Z" id="Vector" fill="#3BB77E" fill-rule="evenodd" stroke="none" />
    <path d="M15.0147 19.0802L14.9851 19.0802C13.9786 19.0826 13.1664 19.877 13.1361 20.8887C13.1004 22.0802 13.1004 23.2886 13.1361 24.4802C13.1664 25.4918 13.9786 26.2862 14.9854 26.2887L15.0147 26.2887C16.0212 26.2862 16.8334 25.4918 16.8637 24.4802C16.8994 23.2886 16.8994 22.0802 16.8637 20.8887C16.8334 19.877 16.0212 19.0826 15.0147 19.0802L15.0147 19.0802ZM15.9851 24.4538C15.9694 24.9796 15.5331 25.4084 15.013 25.4097L14.9872 25.4097C14.4667 25.4084 14.0304 24.9796 14.0147 24.4538C13.9794 23.2797 13.9794 22.0891 14.0147 20.915C14.0304 20.3892 14.4667 19.9604 14.9875 19.9591L15.0126 19.9591C15.5331 19.9604 15.9694 20.3892 15.9851 20.915C16.0203 22.0891 16.0203 23.2797 15.9851 24.4538L15.9851 24.4538Z" id="Vector" fill="#3BB77E" fill-rule="evenodd" stroke="none" />
    <path d="M20.8385 19.0802L20.8089 19.0802C19.8024 19.0826 18.9902 19.877 18.9599 20.8887C18.9242 22.0802 18.9242 23.2886 18.9599 24.4802C18.9902 25.4918 19.8024 26.2863 20.8092 26.2887L20.8385 26.2887C21.845 26.2862 22.6572 25.4918 22.6875 24.4802C22.7232 23.2886 22.7232 22.0802 22.6875 20.8887C22.6572 19.877 21.845 19.0826 20.8385 19.0802L20.8385 19.0802ZM21.8089 24.4538C21.7932 24.9796 21.3569 25.4084 20.8368 25.4097L20.811 25.4097C20.2905 25.4084 19.8543 24.9796 19.8385 24.4538C19.8032 23.2797 19.8032 22.0891 19.8385 20.915C19.8543 20.3892 20.2905 19.9604 20.8113 19.9591L20.8365 19.9591C21.357 19.9604 21.7932 20.3892 21.809 20.915C21.8441 22.0891 21.8441 23.2797 21.8089 24.4538L21.8089 24.4538Z" id="Vector" fill="#3BB77E" fill-rule="evenodd" stroke="none" />
  </g>
</svg>