<?xml version="1.0" encoding="utf-8"?>
<svg width="29.43106px" height="29.999939px" viewBox="0 0 29.43106 29.999939" version="1.1" xmlns:xlink="http://www.w3.org/1999/xlink" xmlns="http://www.w3.org/2000/svg">
  <g id="Group">
    <path d="M3.46555 13.125C3.46555 9.39708 6.65552 6.375 10.5905 6.375C14.5256 6.375 17.7155 9.39708 17.7155 13.125C17.7155 16.8529 14.5256 19.875 10.5905 19.875C6.65552 19.875 3.46555 16.8529 3.46555 13.125Z" id="Ellipse-3" fill="#FDC040" fill-rule="evenodd" stroke="none" />
    <path d="M10.675 20.4342C14.9597 20.4342 18.4455 17.2098 18.4455 13.2464C18.4455 9.28299 14.9597 6.05853 10.675 6.05853C6.39038 6.05853 2.90457 9.28299 2.90457 13.2464C2.90457 17.2098 6.39038 20.4342 10.675 20.4342L10.675 20.4342ZM10.675 6.9383C14.4746 6.9383 17.5658 9.76809 17.5658 13.2464C17.5658 16.7247 14.4746 19.5545 10.675 19.5545C6.87548 19.5545 3.78434 16.7247 3.78434 13.2464C3.78434 9.76809 6.87548 6.9383 10.675 6.9383L10.675 6.9383Z" id="Vector" fill="#3BB77E" fill-rule="evenodd" stroke="none" />
    <path d="M13.0545 12.1311C13.0545 12.8456 13.6359 13.427 14.3505 13.427C15.065 13.427 15.6464 12.8456 15.6464 12.1311C15.6464 11.4165 15.065 10.8352 14.3505 10.8352C13.6359 10.8352 13.0545 11.4165 13.0545 12.1311L13.0545 12.1311ZM14.4342 11.7149C14.7099 11.7149 14.9342 11.9393 14.9342 12.2149C14.9342 12.4906 14.7099 12.7149 14.4342 12.7149C14.1585 12.7149 13.9342 12.4906 13.9342 12.2149C13.9342 11.9393 14.1586 11.7149 14.4342 11.7149L14.4342 11.7149Z" id="Vector" fill="#3BB77E" fill-rule="evenodd" stroke="none" />
    <path d="M12.2522 11.2808C12.9668 11.2808 13.5481 10.6995 13.5481 9.98492C13.5481 9.27037 12.9668 8.68902 12.2522 8.68902C11.5377 8.68902 10.9563 9.27037 10.9563 9.98492C10.9563 10.6995 11.5377 11.2808 12.2522 11.2808L12.2522 11.2808ZM12.3361 9.56873C12.6118 9.56873 12.8361 9.79303 12.8361 10.0687C12.8361 10.3444 12.6118 10.5687 12.3361 10.5687C12.0604 10.5687 11.8361 10.3444 11.8361 10.0687C11.8361 9.79303 12.0604 9.56873 12.3361 9.56873L12.3361 9.56873Z" id="Vector" fill="#3BB77E" fill-rule="evenodd" stroke="none" />
    <path d="M6.99951 13.427C7.71411 13.427 8.29546 12.8456 8.29546 12.1311C8.29546 11.4165 7.71411 10.8352 6.99951 10.8352C6.28495 10.8352 5.70361 11.4165 5.70361 12.1311C5.70361 12.8456 6.28495 13.427 6.99951 13.427L6.99951 13.427ZM7.08334 11.7149C7.35908 11.7149 7.58337 11.9393 7.58337 12.2149C7.58337 12.4906 7.35908 12.7149 7.08334 12.7149C6.80767 12.7149 6.58337 12.4906 6.58337 12.2149C6.58337 11.9393 6.80767 11.7149 7.08334 11.7149L7.08334 11.7149Z" id="Vector" fill="#3BB77E" fill-rule="evenodd" stroke="none" />
    <path d="M9.09762 11.2808C9.81217 11.2808 10.3935 10.6995 10.3935 9.98492C10.3935 9.27037 9.81217 8.68902 9.09762 8.68902C8.38308 8.68902 7.80173 9.27037 7.80173 9.98492C7.80173 10.6995 8.38308 11.2808 9.09762 11.2808L9.09762 11.2808ZM9.18149 9.56873C9.45719 9.56873 9.68149 9.79303 9.68149 10.0687C9.68149 10.3444 9.45719 10.5687 9.18149 10.5687C8.9058 10.5687 8.68149 10.3444 8.68149 10.0687C8.68149 9.79303 8.9058 9.56873 9.18149 9.56873L9.18149 9.56873Z" id="Vector" fill="#3BB77E" fill-rule="evenodd" stroke="none" />
    <path d="M8.45338 13.0383C8.39227 13.3259 8.22893 13.5889 7.98101 13.7989C7.42417 14.2706 7.13315 14.9596 7.18253 15.6893C7.25948 16.8259 8.17544 17.7332 9.31309 17.7998C9.68828 17.8216 10.0649 17.7507 10.4025 17.5943C10.573 17.5153 10.7767 17.5153 10.9473 17.5943C11.2449 17.7322 11.5728 17.8037 11.9032 17.8037C11.9477 17.8037 11.9923 17.8024 12.0367 17.7998C13.1744 17.7332 14.0903 16.8259 14.1672 15.6893C14.2166 14.9596 13.9256 14.2705 13.3688 13.7989C13.1209 13.5889 12.9576 13.3259 12.8965 13.0384C12.7904 12.5392 12.5259 12.1005 12.1316 11.7695C11.3011 11.0723 10.0486 11.0723 9.21813 11.7695C8.82388 12.1005 8.55948 12.5393 8.45338 13.0383L8.45338 13.0383ZM9.78382 12.4433C10.2918 12.0168 11.058 12.0168 11.5659 12.4433C11.8085 12.6468 11.971 12.9159 12.0358 13.2212C12.1378 13.7011 12.4021 14.133 12.8001 14.4702C13.1414 14.7593 13.3197 15.182 13.2894 15.6298C13.2423 16.3254 12.6817 16.8807 11.9852 16.9215C11.7514 16.9352 11.5264 16.893 11.317 16.796C11.113 16.7015 10.8939 16.6542 10.6749 16.6542C10.4558 16.6542 10.2367 16.7015 10.0326 16.796C9.8233 16.893 9.59837 16.9353 9.36447 16.9215C8.66805 16.8807 8.1074 16.3254 8.0603 15.6299C8.02998 15.182 8.20834 14.7593 8.54963 14.4702C8.94764 14.1331 9.21192 13.7012 9.31391 13.2212C9.37884 12.9159 9.5413 12.6469 9.78382 12.4433L9.78382 12.4433Z" id="Vector" fill="#3BB77E" fill-rule="evenodd" stroke="none" />
    <path d="M27.9827 23.5504C28.9169 22.3584 29.431 20.8755 29.431 19.356C29.431 15.6016 26.3766 12.5472 22.6222 12.5472C21.9204 12.5472 21.2346 12.6527 20.5759 12.8605C20.5285 10.6857 20.4157 8.51378 20.2369 6.35349C20.1729 5.5861 20.3404 4.83748 20.7211 4.18845C21.2386 3.30581 21.702 2.10012 20.9705 1.36856C20.657 1.05525 19.8532 0.601056 16.507 0.275542C14.4183 0.0723754 12.1248 0 10.6748 0C9.22483 0 6.93128 0.0723754 4.84254 0.275601C1.49639 0.601114 0.692632 1.05531 0.378966 1.36874C-0.352471 2.10012 0.110931 3.30581 0.628468 4.18862C1.00917 4.83754 1.17662 5.58616 1.11263 6.35337C1.08782 6.65003 1.06325 6.96586 1.03545 7.34745C1.01773 7.58974 1.19985 7.80053 1.44213 7.81818C1.68448 7.83595 1.89521 7.65378 1.91287 7.41149C1.94049 7.03314 1.96477 6.72018 1.98935 6.42663C2.06847 5.47754 1.86026 4.54968 1.38735 3.74352C1.36331 3.70246 1.34078 3.66229 1.31838 3.62217C2.65011 3.06141 6.99908 2.69572 10.6749 2.69572C12.0739 2.69572 14.294 2.76469 16.3291 2.95818C18.5764 3.17191 19.5817 3.43754 20.0299 3.6244C20.0079 3.66375 19.9859 3.70317 19.9622 3.74346C19.4893 4.54968 19.281 5.47748 19.3601 6.42639C19.8161 11.936 19.8401 17.5219 19.434 23.0371C18.4902 23.0368 17.5462 23.0443 16.6072 23.0596C16.4867 21.5632 15.2304 20.3825 13.7035 20.3825C12.0971 20.3825 10.7903 21.6893 10.7903 23.2957C10.7903 23.9975 11.0415 24.6667 11.4917 25.1913C11.3791 25.3225 11.279 25.4627 11.1921 25.6103C8.5609 25.6296 5.89539 25.5011 3.26554 25.227C2.57797 25.1558 2.03809 24.6021 1.98178 23.9101C1.58073 19.0159 1.5192 14.0511 1.79891 9.15355C1.81275 8.91103 1.62735 8.70317 1.38483 8.68927C1.14237 8.67554 0.93445 8.86082 0.92055 9.10334C0.638497 14.0414 0.70055 19.0473 1.10489 23.9816C1.19545 25.0954 2.066 25.9871 3.17457 26.102C5.66254 26.3613 8.18184 26.4923 10.6758 26.4923C10.7346 26.4923 10.7933 26.4914 10.8522 26.4913C10.8118 26.6853 10.7902 26.8846 10.7902 27.0867C10.7902 28.6931 12.0971 29.9999 13.7034 29.9999C15.2303 29.9999 16.4866 28.8192 16.6072 27.3228C18.4573 27.3531 20.3265 27.3531 22.1762 27.3228C22.2967 28.8192 23.5531 29.9999 25.08 29.9999C25.5488 29.9999 26.0153 29.8857 26.4291 29.6696C26.6444 29.5572 26.7278 29.2914 26.6154 29.0761C26.5028 28.8607 26.2371 28.7772 26.0218 28.8898C25.7291 29.0426 25.4122 29.1202 25.08 29.1202C23.9588 29.1202 23.0465 28.208 23.0465 27.0867C23.0465 27.0358 23.0492 26.9804 23.055 26.9121C23.0655 26.788 23.0229 26.6652 22.9377 26.5743C22.8526 26.4834 22.7329 26.4328 22.6083 26.4352C20.4742 26.476 18.3098 26.476 16.1752 26.4352C16.0513 26.4329 15.931 26.4834 15.8458 26.5743C15.7606 26.6652 15.718 26.788 15.7285 26.9121C15.7342 26.9799 15.7369 27.0354 15.7369 27.0867C15.7369 28.208 14.8247 29.1202 13.7035 29.1202C12.5822 29.1202 11.6701 28.208 11.6701 27.0867C11.6701 26.4846 11.9354 25.9164 12.3981 25.528C12.4976 25.4445 12.5552 25.3211 12.5552 25.1911C12.5552 25.0612 12.4977 24.9378 12.3981 24.8543C11.9354 24.4659 11.6701 23.8978 11.6701 23.2955C11.6701 22.1743 12.5822 21.2621 13.7035 21.2621C14.8247 21.2621 15.7369 22.1743 15.7369 23.2955C15.7369 23.3469 15.7342 23.4024 15.7285 23.4702C15.718 23.5943 15.7606 23.7171 15.8458 23.808C15.931 23.8989 16.0512 23.9497 16.1752 23.947C18.3097 23.9063 20.4742 23.9063 22.6083 23.947C22.733 23.9497 22.8526 23.8989 22.9377 23.808C23.0229 23.7171 23.0655 23.5943 23.055 23.4702C23.0492 23.4019 23.0465 23.3464 23.0465 23.2955C23.0465 22.1743 23.9588 21.2621 25.08 21.2621C26.2015 21.2621 27.114 22.1743 27.114 23.2955C27.114 23.8979 26.8486 24.4659 26.3856 24.8541C26.2859 24.9377 26.2283 25.0611 26.2283 25.1911C26.2283 25.3212 26.2859 25.4446 26.3856 25.5282C26.8486 25.9164 27.114 26.4845 27.114 27.0867C27.114 27.3435 27.0669 27.5937 26.9739 27.8301C26.8849 28.0562 26.9961 28.3116 27.2222 28.4005C27.4483 28.4894 27.7037 28.3782 27.7926 28.1522C27.9261 27.8127 27.9938 27.4543 27.9938 27.0868C27.9938 26.3849 27.7424 25.7157 27.292 25.1912C27.6876 24.7307 27.9296 24.1584 27.9827 23.5504L27.9827 23.5504ZM10.6749 1.81589C10.5953 1.81589 3.33509 1.82856 0.962896 2.82628C0.841723 2.43554 0.850403 2.14152 1.00102 1.99091C1.12002 1.87196 1.75492 1.45988 4.92776 1.1512C6.98518 0.951085 9.24553 0.879765 10.6748 0.879765C12.1041 0.879765 14.3644 0.951085 16.4218 1.1512C19.5947 1.45988 20.2296 1.87196 20.3485 1.99079C20.4992 2.14152 20.5079 2.43548 20.3868 2.82622C18.0145 1.82862 10.7546 1.81589 10.6749 1.81589L10.6749 1.81589ZM25.0801 20.3824C23.5532 20.3824 22.2969 21.5631 22.1763 23.0596C21.558 23.0494 20.9372 23.044 20.3159 23.0406C20.5404 19.9683 20.633 16.8744 20.5921 13.7838C21.2405 13.5469 21.922 13.427 22.6222 13.427C25.8915 13.427 28.5513 16.0867 28.5513 19.356C28.5513 20.3716 28.2878 21.3686 27.7976 22.2465C27.3755 21.1572 26.3169 20.3824 25.0801 20.3824L25.0801 20.3824Z" id="Vector" fill="#3BB77E" fill-rule="evenodd" stroke="none" />
  </g>
</svg>